<svg width="24" height="24" viewBox="0 0 24 24" fill="none" xmlns="http://www.w3.org/2000/svg">
<g clip-path="url(#clip0)">
<path d="M19.0452 4.22675H17.6362C17.2468 4.22675 16.9316 4.54184 16.9316 4.93128C16.9316 5.32067 17.2467 5.63581 17.6362 5.63581H19.0452C19.4346 5.63581 19.7497 5.32071 19.7497 4.93128C19.7497 4.54184 19.4346 4.22675 19.0452 4.22675Z" fill="#040932"/>
<path d="M11.9252 1.79802L11.2207 0.389002C11.0453 0.0408622 10.6236 -0.0987782 10.2754 0.073909C9.92728 0.247956 9.78624 0.671095 9.96033 1.01924L10.6649 2.42825C10.8387 2.77498 11.2597 2.91743 11.6102 2.74334C11.9582 2.56929 12.0993 2.14616 11.9252 1.79802Z" fill="#040932"/>
<path d="M16.5423 0.0739006C16.1955 -0.0987866 15.7711 0.0409007 15.597 0.388994L14.8924 1.79801C14.7184 2.14615 14.8594 2.56924 15.2075 2.74333C15.559 2.9179 15.9796 2.7738 16.1528 2.42824L16.8574 1.01923C17.0314 0.671087 16.8904 0.247947 16.5423 0.0739006Z" fill="#040932"/>
<path d="M9.1819 4.22675H7.77289C7.3835 4.22675 7.06836 4.54184 7.06836 4.93128C7.06836 5.32067 7.38345 5.63581 7.77289 5.63581H9.1819C9.57129 5.63581 9.88643 5.32071 9.88643 4.93128C9.88643 4.54184 9.57129 4.22675 9.1819 4.22675Z" fill="#040932"/>
<path d="M4.95522 11.3188H2.13715C1.74809 11.3188 1.43262 11.6342 1.43262 12.0233V23.2954C1.43262 23.6845 1.74804 23.9999 2.13715 23.9999H4.95517C5.34424 23.9999 5.6597 23.6845 5.6597 23.2954V12.0233C5.6597 11.6342 5.34433 11.3188 4.95522 11.3188Z" fill="#040932"/>
<path d="M22.5535 13.1864C22.4293 12.0935 21.4084 11.3189 20.3085 11.3189H14.8159C15.2827 10.4831 15.5332 8.11905 15.5221 7.15333C15.5037 5.5548 14.1799 4.2738 12.5813 4.2738H12C11.6106 4.2738 11.2954 4.5889 11.2954 4.97833C11.2954 6.60747 10.6611 9.54803 9.4647 10.7445C8.65943 11.5497 7.97103 11.8415 7.06836 12.2926V22.8638C8.45037 23.3244 10.2051 24.0001 12.8796 24.0001H17.4882C19.0067 24.0001 20.1893 22.5937 19.6009 21.1078C20.4974 20.8636 21.1585 20.0414 21.1585 19.0686C21.1585 18.794 21.1056 18.5312 21.0099 18.2897C22.5207 17.8781 23.0767 16.0127 22.0282 14.8415C22.4134 14.4111 22.6259 13.8225 22.5535 13.1864Z" fill="#040932"/>
</g>
<defs>
<clipPath id="clip0">
<rect width="24" height="24" fill="white"/>
</clipPath>
</defs>
</svg>
