<svg width="24" height="24" viewBox="0 0 24 24" fill="none" xmlns="http://www.w3.org/2000/svg">
<rect x="0.305664" y="0.000488281" width="23.305" height="23.3053" rx="6" fill="#FFD84D"/>
<path d="M17.9429 8.05714C17.5395 8.23411 17.1096 8.3514 16.6615 8.40836C17.1225 8.13308 17.4744 7.7005 17.6398 7.17911C17.21 7.4354 16.7354 7.61643 16.2296 7.71746C15.8214 7.28285 15.2397 7.01367 14.6051 7.01367C13.3738 7.01367 12.3825 8.01307 12.3825 9.23825C12.3825 9.41454 12.3975 9.58404 12.4341 9.74541C10.5851 9.65523 8.94909 8.76906 7.85003 7.41913C7.65815 7.75203 7.5456 8.13308 7.5456 8.54328C7.5456 9.31351 7.94224 9.99627 8.53347 10.3916C8.17616 10.3848 7.82562 10.281 7.52865 10.1176C7.52865 10.1244 7.52865 10.1332 7.52865 10.142C7.52865 11.2228 8.29955 12.1205 9.31047 12.3273C9.12944 12.3768 8.93214 12.4005 8.72738 12.4005C8.585 12.4005 8.44126 12.3924 8.30633 12.3626C8.59449 13.2433 9.41217 13.8908 10.3844 13.9118C9.62778 14.5037 8.66704 14.8604 7.62697 14.8604C7.44458 14.8604 7.26965 14.8522 7.09473 14.8299C8.07988 15.4652 9.24741 15.8279 10.5065 15.8279C14.599 15.8279 16.8364 12.4378 16.8364 9.49929C16.8364 9.40097 16.833 9.30605 16.8283 9.21181C17.2697 8.89856 17.6405 8.50735 17.9429 8.05714Z" fill="#040932"/>
</svg>
