<svg width="33" height="33" viewBox="0 0 33 33" fill="none" xmlns="http://www.w3.org/2000/svg">
<rect width="32.839" height="32.839" rx="10" fill="#FFD84D"/>
<path d="M19.7137 11.8571V12.7142H13.1427C12.7638 12.7142 12.4005 12.8647 12.1326 13.1326C11.8647 13.4005 11.7142 13.7638 11.7142 14.1427V20.7137H10.8571C10.6298 20.7137 10.4118 20.6234 10.251 20.4627C10.0903 20.302 10 20.084 10 19.8566V11.8571C10 11.6298 10.0903 11.4118 10.251 11.251C10.4118 11.0903 10.6298 11 10.8571 11H18.8566C19.084 11 19.302 11.0903 19.4627 11.251C19.6234 11.4118 19.7137 11.6298 19.7137 11.8571V11.8571Z" fill="black"/>
<path d="M21.1428 13.2856H13.1432C12.9159 13.2856 12.6979 13.3759 12.5372 13.5367C12.3764 13.6974 12.2861 13.9154 12.2861 14.1427V22.1423C12.2861 22.3696 12.3764 22.5876 12.5372 22.7484C12.6979 22.9091 12.9159 22.9994 13.1432 22.9994H21.1428C21.3701 22.9994 21.5881 22.9091 21.7488 22.7484C21.9096 22.5876 21.9999 22.3696 21.9999 22.1423V14.1427C21.9999 13.9154 21.9096 13.6974 21.7488 13.5367C21.5881 13.3759 21.3701 13.2856 21.1428 13.2856V13.2856ZM19.8686 17.4397L19.2972 18.0111C19.0633 18.2427 18.757 18.3872 18.4295 18.4205C18.102 18.4538 17.773 18.3738 17.4973 18.1939V18.1939L17.1944 18.4968C17.351 18.7296 17.4328 19.0047 17.4287 19.2853C17.4294 19.4731 17.3928 19.6591 17.3212 19.8327C17.2496 20.0063 17.1444 20.164 17.0116 20.2967L16.4402 20.8681C16.1714 21.1354 15.8078 21.2854 15.4288 21.2854C15.0498 21.2854 14.6862 21.1354 14.4174 20.8681C14.1502 20.5993 14.0001 20.2357 14.0001 19.8567C14.0001 19.4777 14.1502 19.1141 14.4174 18.8453L14.9888 18.2739C15.2237 18.0418 15.5309 17.8971 15.8594 17.8639C16.1879 17.8306 16.5179 17.9108 16.7945 18.0911L17.0973 17.794C16.9375 17.5602 16.8537 17.2828 16.8573 16.9997C16.8567 16.812 16.8932 16.6259 16.9648 16.4523C17.0364 16.2788 17.1416 16.1211 17.2744 15.9884L17.8458 15.417C18.1153 15.1511 18.4786 15.002 18.8572 15.002C19.2358 15.002 19.5991 15.1511 19.8686 15.417C20.1358 15.6857 20.2859 16.0493 20.2859 16.4283C20.2859 16.8073 20.1358 17.171 19.8686 17.4397V17.4397Z" fill="black"/>
<path d="M16.8568 19.2853C16.8566 19.5126 16.7661 19.7304 16.6054 19.891L16.034 20.4624C15.9555 20.5466 15.8609 20.6141 15.7557 20.661C15.6506 20.7078 15.5371 20.733 15.422 20.7351C15.3069 20.7371 15.1926 20.7159 15.0859 20.6728C14.9792 20.6297 14.8822 20.5655 14.8008 20.4842C14.7195 20.4028 14.6553 20.3058 14.6122 20.1991C14.5691 20.0924 14.5479 19.9781 14.5499 19.863C14.552 19.7479 14.5772 19.6344 14.624 19.5293C14.6708 19.4241 14.7384 19.3295 14.8226 19.251L15.394 18.6796C15.5549 18.5194 15.7726 18.429 15.9997 18.4282C16.1284 18.428 16.2555 18.4573 16.3711 18.5139C16.3438 18.5396 16.322 18.5706 16.3071 18.605C16.2922 18.6394 16.2845 18.6764 16.2845 18.7139C16.2845 18.7514 16.2922 18.7885 16.3071 18.8229C16.322 18.8573 16.3438 18.8883 16.3711 18.9139C16.3967 18.9412 16.4277 18.963 16.4621 18.9779C16.4965 18.9928 16.5336 19.0005 16.5711 19.0005C16.6086 19.0005 16.6456 18.9928 16.68 18.9779C16.7144 18.963 16.7454 18.9412 16.7711 18.9139C16.8283 19.0293 16.8577 19.1565 16.8568 19.2853V19.2853Z" fill="black"/>
<path d="M19.7133 16.4281C19.7131 16.6554 19.6227 16.8732 19.4619 17.0338L18.8905 17.6052C18.7653 17.7313 18.6038 17.8152 18.4286 17.8449C18.2534 17.8746 18.0732 17.8487 17.9134 17.7709C17.9665 17.7179 17.9963 17.6459 17.9963 17.5709C17.9963 17.4959 17.9665 17.424 17.9134 17.3709C17.8604 17.3179 17.7885 17.2881 17.7135 17.2881C17.6384 17.2881 17.5665 17.3179 17.5135 17.3709C17.4562 17.2555 17.4269 17.1283 17.4278 16.9995C17.428 16.7723 17.5184 16.5544 17.6792 16.3938L18.2506 15.8224C18.3704 15.7027 18.5231 15.6212 18.6892 15.5882C18.8554 15.5552 19.0276 15.5722 19.1841 15.637C19.3407 15.7018 19.4745 15.8115 19.5687 15.9523C19.6628 16.0931 19.7132 16.2587 19.7133 16.4281Z" fill="black"/>
</svg>
