<svg width="24" height="24" viewBox="0 0 24 24" fill="none" xmlns="http://www.w3.org/2000/svg">
<g clip-path="url(#clip0)">
<path d="M11.7671 6.67818V4.86932H6.36743V15.5306H11.7671V13.7217C10.1224 13.3939 8.87885 11.9396 8.87885 10.1999C8.87885 8.46028 10.1224 7.00603 11.7671 6.67818V6.67818Z" fill="#040932"/>
<path d="M7.28467 16.9368H10.8497V18.8477H7.28467V16.9368Z" fill="#040932"/>
<path d="M21.6949 15.9717C21.6949 12.4015 18.7904 9.49685 15.2201 9.49685H14.5383C14.2449 8.63603 13.4288 8.01489 12.4699 8.01489C11.2651 8.01489 10.2849 8.9951 10.2849 10.1999C10.2849 11.4048 11.2651 12.385 12.4699 12.385C13.4288 12.385 14.2448 11.7639 14.5383 10.903H15.2201C18.015 10.903 20.2887 13.1768 20.2887 15.9716C20.2887 18.7662 18.0154 21.0397 15.221 21.0402H2.30566V24.0001H21.695V21.0402H19.2444C20.7365 19.853 21.6949 18.0223 21.6949 15.9717V15.9717Z" fill="#040932"/>
<path d="M7.38281 3.45975H10.7507V1.40625H12.1569V0H5.97656V1.40625H7.38281V3.45975Z" fill="#040932"/>
</g>
<defs>
<clipPath id="clip0">
<rect width="24" height="24" fill="white"/>
</clipPath>
</defs>
</svg>
