<svg width="24" height="24" viewBox="0 0 24 24" fill="none" xmlns="http://www.w3.org/2000/svg">
<path d="M3.99975 12C5.10432 12 5.99975 11.1046 5.99975 10C5.99975 8.89543 5.10432 8 3.99975 8C2.89519 8 1.99976 8.89543 1.99976 10C1.99976 11.1046 2.89519 12 3.99975 12Z" fill="#040932"/>
<path d="M6.67 13.4C5.66 14.16 5 15.38 5 16.75V17H0.75C0.34 17 0 16.66 0 16.25V15.75C0 14.23 1.23 13 2.75 13H5.25C5.77 13 6.26 13.15 6.67 13.4Z" fill="#040932"/>
<path d="M20 12C21.1046 12 22 11.1046 22 10C22 8.89543 21.1046 8 20 8C18.8954 8 18 8.89543 18 10C18 11.1046 18.8954 12 20 12Z" fill="#040932"/>
<path d="M23.9998 15.75V16.25C23.9998 16.66 23.6598 17 23.2498 17H18.9998V16.75C18.9998 15.38 18.3398 14.16 17.3298 13.4C17.7398 13.15 18.2298 13 18.7498 13H21.2498C22.7698 13 23.9998 14.23 23.9998 15.75Z" fill="#040932"/>
<path d="M12 12.5C13.6569 12.5 15 11.1569 15 9.5C15 7.84315 13.6569 6.5 12 6.5C10.3431 6.5 9 7.84315 9 9.5C9 11.1569 10.3431 12.5 12 12.5Z" fill="#040932"/>
<path d="M14.7497 14H9.24975C7.73275 14 6.49976 15.233 6.49976 16.75V18.25C6.49976 18.664 6.83576 19 7.24976 19H16.7497C17.1637 19 17.4997 18.664 17.4997 18.25V16.75C17.4997 15.233 16.2667 14 14.7497 14Z" fill="#040932"/>
</svg>
