<svg width="39" height="39" viewBox="0 0 39 39" fill="none" xmlns="http://www.w3.org/2000/svg">
<g clip-path="url(#clip0)">
<path d="M37.9866 4.81023L34.1892 1.01253C33.797 0.621424 33.2657 0.401794 32.7118 0.401794C32.1579 0.401794 31.6267 0.621424 31.2345 1.01253L31.059 1.18833C30.6678 1.58049 30.4481 2.11178 30.4481 2.66568C30.4481 3.21958 30.6678 3.75087 31.059 4.14303L31.6428 4.72653L28.4892 7.87953L25.2216 4.61283C24.8294 4.22172 24.2981 4.0021 23.7442 4.0021C23.1903 4.0021 22.6591 4.22172 22.2669 4.61283L22.0914 4.78863C21.8974 4.98263 21.7435 5.21295 21.6384 5.46644C21.5334 5.71992 21.4794 5.99161 21.4794 6.26598C21.4794 6.54035 21.5334 6.81204 21.6384 7.06552C21.7435 7.31901 21.8974 7.54933 22.0914 7.74333L22.2663 7.91793L8.78308 21.4002C8.4039 21.7803 8.19095 22.2953 8.19095 22.8321C8.19095 23.369 8.4039 23.884 8.78308 24.264L9.56308 25.044L4.28908 30.3186C4.1907 30.4171 4.13544 30.5506 4.13544 30.6897C4.13544 30.8289 4.1907 30.9624 4.28908 31.0608L5.74258 32.5143L0.353376 37.9035C0.303243 37.952 0.263259 38.0099 0.235757 38.074C0.208256 38.138 0.193787 38.2069 0.193195 38.2766C0.192604 38.3463 0.205901 38.4155 0.232311 38.48C0.258722 38.5445 0.297717 38.6031 0.34702 38.6524C0.396324 38.7017 0.454949 38.7407 0.519475 38.767C0.584001 38.7934 0.653135 38.8067 0.722844 38.8061C0.792553 38.8055 0.86144 38.791 0.925487 38.7634C0.989533 38.7359 1.04746 38.6959 1.09588 38.6457L6.48478 33.2568L7.93858 34.7103C7.98728 34.7591 8.04513 34.7978 8.1088 34.8242C8.17248 34.8506 8.24074 34.8642 8.30968 34.8642C8.37861 34.8642 8.44687 34.8506 8.51055 34.8242C8.57422 34.7978 8.63207 34.7591 8.68077 34.7103L13.9551 29.4363L14.7351 30.2163C15.1152 30.5954 15.6302 30.8082 16.167 30.8082C16.7038 30.8082 17.2187 30.5954 17.5989 30.2163L19.1889 28.6263L26.3988 21.4158L31.0812 16.7331L31.2561 16.908C31.6482 17.2994 32.1795 17.5191 32.7334 17.5191C33.2874 17.5191 33.8187 17.2994 34.2108 16.908L34.3863 16.7322C34.7776 16.3402 34.9974 15.8089 34.9974 15.255C34.9974 14.7011 34.7776 14.1699 34.3863 13.7778L31.1199 10.5102L34.2729 7.35693L34.8564 7.94073C35.2485 8.33191 35.7798 8.55159 36.3337 8.55159C36.8876 8.55159 37.4189 8.33191 37.8111 7.94073L37.9866 7.76493C38.378 7.37289 38.5978 6.84156 38.5978 6.28758C38.5978 5.73361 38.378 5.20227 37.9866 4.81023ZM13.2126 28.6941L8.30968 33.5967L6.85648 32.1435L5.40328 30.6906L10.3056 25.7868L11.7591 27.2403L13.2126 28.6941ZM28.4313 17.8983L26.3976 15.8649C26.3492 15.8148 26.2912 15.7748 26.2272 15.7472C26.1631 15.7197 26.0943 15.7052 26.0245 15.7046C25.9548 15.704 25.8857 15.7173 25.8212 15.7436C25.7566 15.77 25.698 15.809 25.6487 15.8583C25.5994 15.9076 25.5604 15.9662 25.534 16.0307C25.5076 16.0952 25.4943 16.1643 25.4949 16.234C25.4955 16.3037 25.51 16.3726 25.5375 16.4367C25.565 16.5008 25.6049 16.5587 25.6551 16.6071L27.6891 18.6408L26.0292 20.3022L24.8541 19.1271C24.7555 19.0284 24.6218 18.9728 24.4823 18.9726C24.3427 18.9724 24.2089 19.0277 24.1101 19.1262C24.0113 19.2248 23.9557 19.3585 23.9555 19.498C23.9554 19.6376 24.0106 19.7715 24.1092 19.8702L25.284 21.0453L23.6229 22.7067L21.5892 20.6721C21.5404 20.6234 21.4825 20.5847 21.4188 20.5583C21.3551 20.5319 21.2869 20.5184 21.2179 20.5184C21.149 20.5184 21.0807 20.5319 21.017 20.5583C20.9533 20.5847 20.8954 20.6234 20.8467 20.6721C20.7979 20.7209 20.7592 20.7788 20.7329 20.8425C20.7065 20.9062 20.6929 20.9744 20.6929 21.0434C20.6929 21.1123 20.7065 21.1806 20.7329 21.2443C20.7592 21.308 20.7979 21.3659 20.8467 21.4146L22.8804 23.448L21.2193 25.1094L20.0442 23.9343C19.9954 23.8856 19.9375 23.8469 19.8738 23.8205C19.8101 23.7941 19.7419 23.7806 19.6729 23.7806C19.604 23.7806 19.5357 23.7941 19.472 23.8205C19.4083 23.8469 19.3504 23.8856 19.3017 23.9343C19.2529 23.9831 19.2142 24.041 19.1879 24.1047C19.1615 24.1684 19.1479 24.2366 19.1479 24.3056C19.1479 24.3745 19.1615 24.4428 19.1879 24.5065C19.2142 24.5702 19.2529 24.6281 19.3017 24.6768L20.4792 25.8519L18.8178 27.5133L16.7829 25.4802C16.6845 25.3818 16.551 25.3265 16.4118 25.3265C16.2726 25.3265 16.1391 25.3818 16.0407 25.4802C15.9423 25.5787 15.887 25.7121 15.887 25.8513C15.887 25.9905 15.9423 26.124 16.0407 26.2224L18.0744 28.2564L16.8561 29.4744C16.6729 29.6572 16.4248 29.7598 16.1661 29.7598C15.9074 29.7598 15.6592 29.6572 15.4761 29.4744L9.52588 23.5221C9.34305 23.339 9.24035 23.0909 9.24035 22.8321C9.24035 22.5734 9.34305 22.3252 9.52588 22.1421L23.0085 8.66043L30.3387 15.9909L28.4313 17.8983ZM33.6441 15.99L33.4683 16.1658C33.2731 16.3603 33.0088 16.4695 32.7333 16.4695C32.4577 16.4695 32.1934 16.3603 31.9983 16.1658L22.8339 7.00023C22.7373 6.90375 22.6607 6.78917 22.6084 6.66305C22.5561 6.53694 22.5292 6.40175 22.5292 6.26523C22.5292 6.12871 22.5561 5.99352 22.6084 5.86741C22.6607 5.74129 22.7373 5.62672 22.8339 5.53023L23.0094 5.35443C23.2045 5.1598 23.4688 5.0505 23.7444 5.0505C24.02 5.0505 24.2843 5.1598 24.4794 5.35443L28.116 8.99193L30.006 10.8819L33.6435 14.5194C33.8383 14.7145 33.9478 14.9789 33.9479 15.2546C33.948 15.5303 33.8387 15.7948 33.6441 15.99ZM30.3774 9.76863L29.2308 8.62203L32.3838 5.46903L33.5304 6.61563L30.3774 9.76863ZM37.2441 7.02333L37.0686 7.19913C36.8735 7.39376 36.6091 7.50306 36.3336 7.50306C36.058 7.50306 35.7937 7.39376 35.5986 7.19913L34.6437 6.24423L32.7537 4.35423L31.8003 3.40023C31.6055 3.20521 31.4961 2.94086 31.4961 2.66523C31.4961 2.3896 31.6055 2.12525 31.8003 1.93023L31.9758 1.75443C32.1709 1.5598 32.4352 1.4505 32.7108 1.4505C32.9864 1.4505 33.2507 1.5598 33.4458 1.75443L37.2444 5.55333C37.4391 5.74839 37.5485 6.01277 37.5484 6.28839C37.5483 6.56402 37.4389 6.82835 37.2441 7.02333Z" fill="white"/>
</g>
<defs>
<clipPath id="clip0">
<rect x="0.200012" y="0.400024" width="38.4" height="38.4" fill="white"/>
</clipPath>
</defs>
</svg>
