<svg width="24" height="24" viewBox="0 0 24 24" fill="none" xmlns="http://www.w3.org/2000/svg">
<rect x="0.000976562" y="0.000488281" width="23.305" height="23.3053" rx="6" fill="#FFD84D"/>
<g clip-path="url(#clip0)">
<path d="M6.82456 17.1767C7.92294 18.2751 9.70367 18.2751 10.802 17.1767L13.1527 14.8261C14.2888 13.6899 14.1836 11.8795 13.1527 10.8485C12.98 10.6759 12.789 10.5351 12.5873 10.4195L12.1583 10.8485C11.8769 11.13 11.976 11.459 11.981 11.6964C12.0428 11.7401 12.1029 11.7875 12.1583 11.8429C12.6874 12.3719 12.7111 13.2788 12.1583 13.8317C12.0762 13.9138 9.85754 16.1325 9.80771 16.1823C9.2593 16.7307 8.36738 16.7307 7.81897 16.1823C7.27056 15.6339 7.27056 14.742 7.81897 14.1935L9.37271 12.6398C9.32778 12.3912 9.05813 11.8023 9.19684 10.8308C9.19006 10.8375 9.18195 10.8418 9.1752 10.8485L6.82456 13.1992C5.72624 14.2976 5.72624 16.0783 6.82456 17.1767Z" fill="#040932"/>
<path d="M10.667 13.3346C10.8396 13.5073 11.0306 13.6481 11.2323 13.7637L11.6613 13.3346C11.9427 13.0533 11.8437 12.7243 11.8386 12.4869C11.7768 12.4431 11.7168 12.3958 11.6613 12.3403C11.1323 11.8112 11.1085 10.9044 11.6613 10.3515C11.7436 10.2692 14.146 7.86678 14.1941 7.81871C14.7425 7.27029 15.6344 7.27029 16.1828 7.81871C16.7313 8.36713 16.7313 9.25905 16.1828 9.80747L14.4469 11.5434C14.4918 11.792 14.7615 12.3809 14.6228 13.3524C14.6296 13.3457 14.6377 13.3414 14.6445 13.3347L17.1772 10.8018C18.2756 9.70343 18.2756 7.92268 17.1772 6.82429C16.0789 5.72595 14.2981 5.72595 13.1998 6.82429L10.667 9.35712C9.55191 10.4722 9.61285 12.2805 10.667 13.3346Z" fill="#040932"/>
</g>
<defs>
<clipPath id="clip0">
<rect width="12" height="12.0001" fill="white" transform="translate(18.001 18.0005) rotate(-180)"/>
</clipPath>
</defs>
</svg>
