<svg width="24" height="24" viewBox="0 0 24 24" fill="none" xmlns="http://www.w3.org/2000/svg">
<rect width="23.305" height="23.3053" rx="6" fill="#FFD84D"/>
<path d="M17.3863 18.0002V17.9997H17.3893V13.5987C17.3893 11.4456 16.9258 9.78711 14.4088 9.78711C13.1988 9.78711 12.3868 10.4511 12.0553 11.0806H12.0203V9.98811H9.63379V17.9997H12.1188V14.0327C12.1188 12.9882 12.3168 11.9781 13.6103 11.9781C14.8848 11.9781 14.9038 13.1702 14.9038 14.0997V18.0002H17.3863Z" fill="#040932"/>
<path d="M5.58789 9.98828H8.0759V17.9999H5.58789V9.98828Z" fill="#040932"/>
<path d="M6.83065 6C6.03515 6 5.38965 6.64552 5.38965 7.44103C5.38965 8.23655 6.03515 8.89557 6.83065 8.89557C7.62615 8.89557 8.27165 8.23655 8.27165 7.44103C8.27115 6.64552 7.62565 6 6.83065 6V6Z" fill="#040932"/>
</svg>
