<svg width="24" height="24" viewBox="0 0 24 24" fill="none" xmlns="http://www.w3.org/2000/svg">
<path d="M20.9643 9.60954V6.30701C20.9643 5.89282 20.6285 5.55701 20.2143 5.55701C18.6201 5.55701 17.2059 6.53791 16.6984 8.14755C10.7015 1.96516 0 6.2268 0 14.9765C0 14.9798 0.00046875 14.9831 0.000515625 14.9863C0.00590625 17.0765 1.70784 18.7754 3.79927 18.7754H11.8244C12.2386 18.7754 12.5744 18.4396 12.5744 18.0254C12.5744 17.6112 12.2386 17.2754 11.8244 17.2754H3.79927C2.79422 17.2754 1.93833 16.6268 1.62656 15.7265H12.4195V14.9764C12.4195 13.5016 11.2197 12.3017 9.74489 12.3017C9.3307 12.3017 8.99489 11.9659 8.99489 11.5517C8.99489 11.1375 9.3307 10.8017 9.74489 10.8017C12.0468 10.8017 13.9195 12.6745 13.9195 14.9764V15.7265H23.25C23.6642 15.7265 24 15.3907 24 14.9765C24 12.6954 22.7811 10.7038 20.9643 9.60954ZM20.5421 13.1751C19.9942 13.1751 19.55 12.7309 19.55 12.183C19.55 11.635 19.9942 11.1908 20.5421 11.1908C21.0901 11.1908 21.5343 11.635 21.5343 12.183C21.5342 12.7309 21.09 13.1751 20.5421 13.1751Z" fill="#040932"/>
</svg>
