<svg width="24" height="24" viewBox="0 0 24 24" fill="none" xmlns="http://www.w3.org/2000/svg">
<path d="M1.92188 24C2.95741 24 3.79688 23.1605 3.79688 22.125C3.79688 21.0895 2.95741 20.25 1.92188 20.25C0.886341 20.25 0.046875 21.0895 0.046875 22.125C0.046875 23.1605 0.886341 24 1.92188 24Z" fill="#040932"/>
<path d="M12 24C13.0355 24 13.875 23.1605 13.875 22.125C13.875 21.0895 13.0355 20.25 12 20.25C10.9645 20.25 10.125 21.0895 10.125 22.125C10.125 23.1605 10.9645 24 12 24Z" fill="#040932"/>
<path d="M14.6899 20.25C15.0618 20.7819 15.2808 21.4282 15.2808 22.125C15.2808 22.8218 15.0618 23.4681 14.6899 24H19.3872C19.0154 23.4681 18.7964 22.8218 18.7964 22.125C18.7964 21.4282 19.0154 20.7819 19.3872 20.25H14.6899Z" fill="#040932"/>
<path d="M4.61206 20.25C4.98387 20.7819 5.20287 21.4282 5.20287 22.125C5.20287 22.8218 4.98387 23.4681 4.61206 24H9.30931C8.93749 23.4681 8.71849 22.8218 8.71849 22.125C8.71849 21.4282 8.93749 20.7819 9.30931 20.25H4.61206Z" fill="#040932"/>
<path d="M22.0781 24C23.1137 24 23.9531 23.1605 23.9531 22.125C23.9531 21.0895 23.1137 20.25 22.0781 20.25C21.0426 20.25 20.2031 21.0895 20.2031 22.125C20.2031 23.1605 21.0426 24 22.0781 24Z" fill="#040932"/>
<path d="M13.7578 14.625H10.2422C9.85387 14.625 9.53906 14.9398 9.53906 15.3281V18.8438H14.4609V15.3281C14.4609 14.9398 14.1461 14.625 13.7578 14.625Z" fill="#040932"/>
<path d="M3.21094 14.625C2.82262 14.625 2.50781 14.9398 2.50781 15.3281V18.8438H7.42969V15.3281C7.42969 14.9398 7.11488 14.625 6.72656 14.625H3.21094Z" fill="#040932"/>
<path d="M17.2734 14.625C16.8851 14.625 16.5703 14.9398 16.5703 15.3281V18.8438H21.4922V15.3281C21.4922 14.9398 21.1774 14.625 20.7891 14.625H17.2734Z" fill="#040932"/>
<path d="M8.25 13.125C8.63831 13.125 8.95312 12.8102 8.95312 12.4219V11.0156C8.95312 10.7344 8.7855 10.4801 8.52698 10.3694L5.67188 9.14573V7.5458C6.09206 7.30261 6.375 6.84858 6.375 6.32812C6.375 5.55145 5.74542 4.92188 4.96875 4.92188C4.19208 4.92188 3.5625 5.55145 3.5625 6.32812C3.5625 6.84853 3.84544 7.30261 4.26562 7.5458V9.14573L1.41052 10.3694C1.152 10.4801 0.984375 10.7344 0.984375 11.0156V12.4219C0.984375 12.8102 1.29919 13.125 1.6875 13.125C2.07581 13.125 2.39062 12.8102 2.39062 12.4219V11.4793L4.96875 10.3744L7.54688 11.4793V12.4219C7.54688 12.8102 7.86169 13.125 8.25 13.125Z" fill="#040932"/>
<path d="M23.2969 0H0.703125C0.314812 0 0 0.314812 0 0.703125C0 1.09144 0.314812 1.40625 0.703125 1.40625H14.4067L12.3773 4.92141C12.2468 5.14739 12.152 5.38411 12.0897 5.625H7.69144C7.74942 5.84981 7.7812 6.08517 7.7812 6.32812C7.7812 6.57108 7.74942 6.80644 7.69144 7.03125H12.0904C12.2726 7.7362 12.7263 8.37052 13.4067 8.76333C14.7519 9.53995 16.472 9.07908 17.2486 7.73391L20.9019 1.40625H23.2969C23.6852 1.40625 24 1.09144 24 0.703125C24 0.314812 23.6852 0 23.2969 0ZM14.8125 7.03125C14.4242 7.03125 14.1094 6.71644 14.1094 6.32812C14.1094 5.93981 14.4242 5.625 14.8125 5.625C15.2008 5.625 15.5156 5.93981 15.5156 6.32812C15.5156 6.71644 15.2008 7.03125 14.8125 7.03125Z" fill="#040932"/>
</svg>
