<svg width="33" height="33" viewBox="0 0 33 33" fill="none" xmlns="http://www.w3.org/2000/svg">
<rect x="0.161133" width="32.839" height="32.839" rx="10" fill="#FFD84D"/>
<path d="M15.0538 18.3533V22.9618H12.356V9.88184H17.9736C18.9568 9.88184 19.8201 10.0615 20.5635 10.4208C21.3129 10.7802 21.8884 11.2922 22.2901 11.957C22.6918 12.6158 22.8926 13.3674 22.8926 14.2119C22.8926 15.4935 22.452 16.5057 21.5707 17.2483C20.6954 17.985 19.4814 18.3533 17.9287 18.3533H15.0538ZM15.0538 16.1703H17.9736C18.6871 16.1703 19.2296 16.0026 19.6013 15.6672C19.979 15.3318 20.1678 14.8527 20.1678 14.2299C20.1678 13.589 19.979 13.071 19.6013 12.6757C19.2236 12.2804 18.702 12.0768 18.0366 12.0648H15.0538V16.1703Z" fill="#040932"/>
</svg>
