<?xml version="1.0" encoding="utf-8"?>
<!-- Generator: Adobe Illustrator 21.0.0, SVG Export Plug-In . SVG Version: 6.00 Build 0)  -->
<svg version="1.1" id="Layer_1" xmlns="http://www.w3.org/2000/svg" xmlns:xlink="http://www.w3.org/1999/xlink" x="0px" y="0px"
	 viewBox="0 0 138 47" style="enable-background:new 0 0 138 47;" xml:space="preserve">
<style type="text/css">
	.st0{fill:#FFFFFF;}
	.st1{fill:#7BCCED;}
	.st2{opacity:0.5;fill:#7BCCED;}
</style>
<g>
	<g>
		<path class="st0" d="M62.6,31.5h-2.9v8.8h-2.6v-8.8h-2.9V29h8.3V31.5z"/>
		<path class="st0" d="M67.5,32v2.7c-1-0.2-2.4,0.2-2.4,1.8v3.6h-2.4v-8H65v1.4C65.4,32.5,66.4,32,67.5,32z"/>
		<path class="st0" d="M76.6,32.2v8h-2.4v-0.8c-0.5,0.6-1.3,1-2.4,1c-2.1,0-3.8-1.8-3.8-4.2c0-2.4,1.7-4.2,3.8-4.2
			c1.1,0,1.9,0.4,2.4,1v-0.8H76.6z M74.1,36.2c0-1.2-0.8-2-1.9-2s-1.9,0.8-1.9,2c0,1.2,0.8,2,1.9,2S74.1,37.4,74.1,36.2z"/>
		<path class="st0" d="M77.9,36.2c0-2.4,1.8-4.2,4.2-4.2c1.6,0,2.9,0.8,3.6,2.1l-2.1,1.2c-0.3-0.6-0.8-0.9-1.6-0.9
			c-1,0-1.8,0.8-1.8,1.9s0.8,1.9,1.8,1.9c0.7,0,1.3-0.3,1.6-0.9l2.1,1.2c-0.7,1.3-2.1,2.1-3.6,2.1C79.7,40.4,77.9,38.6,77.9,36.2z"
			/>
		<path class="st0" d="M91.7,40.2l-2.6-3.5v3.5h-2.4V29h2.4v6.7l2.4-3.5h2.8l-2.9,4l3,4H91.7z"/>
		<path class="st0" d="M98.9,38.3c0.7,0,1.2-0.3,1.5-0.6l1.9,1.1c-0.8,1.1-2,1.7-3.5,1.7c-2.7,0-4.4-1.8-4.4-4.2
			c0-2.4,1.7-4.2,4.3-4.2c2.3,0,4.1,1.8,4.1,4.2c0,0.3,0,0.7-0.1,1H97C97.3,38,98,38.3,98.9,38.3z M100.4,35.4
			c-0.3-0.9-1-1.3-1.7-1.3c-0.9,0-1.5,0.4-1.7,1.3H100.4z"/>
	</g>
	<path class="st0" d="M109.1,32v2.7c-1-0.2-2.4,0.2-2.4,1.8v3.6h-2.4v-8h2.4v1.4C107,32.5,108.1,32,109.1,32z"/>
	<g>
		<path class="st1" d="M54.2,13.9H57l2.5,8.3l2.5-8.3h2.8l-3.7,11.2h-3.3L54.2,13.9z"/>
		<path class="st1" d="M72.9,17.1v8h-2.4v-0.8c-0.5,0.6-1.3,1-2.4,1c-2.1,0-3.8-1.8-3.8-4.2s1.7-4.2,3.8-4.2c1.1,0,1.9,0.4,2.4,1
			v-0.8H72.9z M70.5,21.1c0-1.2-0.8-2-1.9-2c-1.1,0-1.9,0.8-1.9,2c0,1.2,0.8,2,1.9,2C69.7,23.1,70.5,22.3,70.5,21.1z"/>
		<path class="st1" d="M74.3,21.1c0-2.4,1.8-4.2,4.2-4.2c1.6,0,2.9,0.8,3.6,2.1l-2.1,1.2c-0.3-0.6-0.8-0.9-1.6-0.9
			c-1,0-1.8,0.8-1.8,1.9s0.8,1.9,1.8,1.9c0.7,0,1.3-0.3,1.6-0.9l2.1,1.2c-0.7,1.3-2.1,2.1-3.6,2.1C76.1,25.3,74.3,23.5,74.3,21.1z"
			/>
		<path class="st1" d="M82.6,21.1c0-2.4,1.8-4.2,4.2-4.2c1.6,0,2.9,0.8,3.6,2.1l-2.1,1.2c-0.3-0.6-0.8-0.9-1.6-0.9
			c-1,0-1.8,0.8-1.8,1.9s0.8,1.9,1.8,1.9c0.7,0,1.3-0.3,1.6-0.9l2.1,1.2c-0.7,1.3-2.1,2.1-3.6,2.1C84.4,25.3,82.6,23.5,82.6,21.1z"
			/>
		<path class="st1" d="M91.1,14.9c0-0.8,0.7-1.4,1.4-1.4s1.4,0.7,1.4,1.4c0,0.8-0.7,1.4-1.4,1.4S91.1,15.7,91.1,14.9z M91.4,17.1
			h2.4v8h-2.4V17.1z"/>
		<path class="st1" d="M103.2,20.2v4.9h-2.4v-4.6c0-1-0.6-1.5-1.4-1.5c-0.9,0-1.5,0.5-1.5,1.7v4.4h-2.4v-8H98v0.8
			c0.4-0.6,1.2-1,2.3-1C101.9,16.9,103.2,18,103.2,20.2z"/>
		<path class="st1" d="M109,23.2c0.7,0,1.2-0.3,1.5-0.6l1.9,1.1c-0.8,1.1-2,1.7-3.5,1.7c-2.7,0-4.4-1.8-4.4-4.2s1.7-4.2,4.3-4.2
			c2.3,0,4.1,1.8,4.1,4.2c0,0.3,0,0.7-0.1,1H107C107.3,22.9,108.1,23.2,109,23.2z M110.4,20.3c-0.3-0.9-1-1.3-1.7-1.3
			c-0.9,0-1.5,0.4-1.7,1.3H110.4z"/>
		<g>
			<path class="st1" d="M58,6.2h-1.7v5h-0.4v-5h-1.7V5.8H58V6.2z"/>
			<path class="st1" d="M62,8.8v2.4h-0.4V8.8c0-0.7-0.4-1.2-1.1-1.2c-0.7,0-1.3,0.5-1.3,1.5v2h-0.4V5.8h0.4v2.3
				c0.3-0.6,0.8-0.8,1.4-0.8C61.5,7.2,62,7.9,62,8.8z"/>
			<path class="st1" d="M66.7,9.3c0,0.1,0,0.1,0,0.2h-3.5c0.1,0.9,0.7,1.4,1.6,1.4c0.6,0,1.1-0.3,1.3-0.7l0.3,0.2
				c-0.3,0.5-0.9,0.9-1.7,0.9c-1.2,0-2-0.8-2-2c0-1.1,0.8-2,2-2C66,7.2,66.7,8.2,66.7,9.3z M63.2,9.1h3.1c-0.1-0.9-0.7-1.5-1.5-1.5
				C64,7.6,63.3,8.2,63.2,9.1z"/>
		</g>
	</g>
	<g>
		<path class="st0" d="M41.6,20.1c-0.2-1.2-0.5-2.3-1-3.5c-0.2-0.4-0.6-0.5-0.9-0.2l-1.2,1.2c-0.2,0.2-0.2,0.4-0.1,0.6
			c0.6,1.6,0.9,3.3,0.9,5.1c0,8.7-7,15.8-15.7,15.9c0,0-0.1,0-0.1,0c-2.8,0-5.3-0.7-7.6-2c-0.2-0.1-0.5-0.1-0.7,0.1L14,38.6
			c-0.3,0.3-0.2,0.7,0.1,0.9c1.9,1.1,4.1,1.9,6.4,2.3c0.2,0,0.3,0.1,0.4,0.3l2.3,4.6c0.2,0.4,0.8,0.4,1,0l2.2-4.7
			c0.1-0.2,0.2-0.3,0.4-0.3c7.6-1.4,13.6-7.5,14.8-15.1c0-0.2,0.1-0.3,0.3-0.4l4.7-2.3c0.4-0.2,0.4-0.8,0-1l-4.7-2.3
			C41.8,20.5,41.7,20.3,41.6,20.1z"/>
		<path class="st0" d="M23.3,7.7L23.3,7.7c1.9,0,3.7,0.3,5.4,0.9c0.2,0.1,0.4,0,0.6-0.1l1.2-1.2c0.3-0.3,0.2-0.8-0.2-0.9
			c-1.2-0.5-2.6-0.9-3.9-1.1c-0.2,0-0.3-0.1-0.4-0.3l-2.3-4.6c-0.2-0.4-0.8-0.4-1,0L20.6,5c-0.1,0.2-0.2,0.3-0.4,0.3
			c-7.7,1.4-13.7,7.5-15,15.2c0,0.2-0.1,0.3-0.3,0.4l-4.6,2.2c-0.4,0.2-0.4,0.8,0,1l4.6,2.2c0.2,0.1,0.3,0.2,0.3,0.4
			C5.6,29,6.4,31.1,7.6,33c0.2,0.3,0.6,0.4,0.9,0.1l1.2-1.2c0.2-0.2,0.2-0.5,0.1-0.7c-1.3-2.3-2-4.9-2-7.7
			C7.6,14.9,14.7,7.8,23.3,7.7z"/>
	</g>
	<polygon class="st1" points="34.5,13 34.1,12.6 44.3,2.3 44,3.5 	"/>
	<rect x="5.7" y="35.7" transform="matrix(0.7071 -0.7071 0.7071 0.7071 -22.8573 18.1148)" class="st1" width="9.5" height="1.9"/>
	
		<rect x="12.3" y="25.4" transform="matrix(0.7071 -0.7071 0.7071 0.7071 -12.5463 22.3858)" class="st2" width="16.8" height="1.9"/>
	<path class="st1" d="M9.3,43.9l-6.1-6.1c-0.3-0.3-0.3-0.7,0-0.9l0,0c0.3-0.3,0.7-0.3,0.9,0l6.1,6.1c0.3,0.3,0.3,0.7,0,0.9l0,0
		C9.9,44.2,9.5,44.2,9.3,43.9z"/>
	<path class="st2" d="M38.4,10.9l-2.2-2.2c-0.9-0.9-2.4-0.9-3.3,0L12.1,29.5l5.5,5.5l3.9-3.9l-1.3-1.3c-0.1-0.1-0.1-0.2,0-0.3
		c0.1-0.1,0.2-0.1,0.3,0l1.3,1.3l3.4-3.4l-1.3-1.3c-0.1-0.1-0.1-0.2,0-0.3s0.2-0.1,0.3,0l1.3,1.3l3.4-3.4l-1.3-1.3
		c-0.1-0.1-0.1-0.2,0-0.3c0.1-0.1,0.2-0.1,0.3,0l1.3,1.3l3.4-3.4l-1.3-1.3c-0.1-0.1-0.1-0.2,0-0.3s0.2-0.1,0.3,0l1.3,1.3l3.4-3.4
		L35,15.1c-0.1-0.1-0.1-0.2,0-0.3l0,0c0.1-0.1,0.2-0.1,0.3,0l1.3,1.3l1.8-1.8C39.3,13.3,39.3,11.8,38.4,10.9z"/>
	<path class="st1" d="M38.4,10.9l-2.2-2.2c-0.9-0.9-2.4-0.9-3.3,0l-14,14l5.5,5.5l0.8-0.8l-1.3-1.3c-0.1-0.1-0.1-0.2,0-0.3
		s0.2-0.1,0.3,0l1.3,1.3l3.4-3.4l-1.3-1.3c-0.1-0.1-0.1-0.2,0-0.3c0.1-0.1,0.2-0.1,0.3,0l1.3,1.3l3.4-3.4l-1.3-1.3
		c-0.1-0.1-0.1-0.2,0-0.3s0.2-0.1,0.3,0l1.3,1.3l3.4-3.4L35,15.1c-0.1-0.1-0.1-0.2,0-0.3l0,0c0.1-0.1,0.2-0.1,0.3,0l1.3,1.3l1.8-1.8
		C39.3,13.3,39.3,11.8,38.4,10.9z"/>
	<path class="st1" d="M17.8,35.5l-6.1-6.1c-0.1-0.1-0.1-0.4,0-0.5h0c0.1-0.1,0.4-0.1,0.5,0l6.1,6.1c0.1,0.1,0.1,0.4,0,0.5l0,0
		C18.1,35.6,17.9,35.6,17.8,35.5z"/>
</g>
</svg>
