<svg width="34" height="33" viewBox="0 0 34 33" fill="none" xmlns="http://www.w3.org/2000/svg">
<rect x="0.720215" width="32.839" height="32.839" rx="10" fill="#FFD84D"/>
<path d="M25.5742 11.3522C25.0058 11.6015 24.4001 11.7668 23.7686 11.8471C24.4182 11.4592 24.9141 10.8496 25.1472 10.1149C24.5415 10.4761 23.8727 10.7312 23.16 10.8735C22.5848 10.2611 21.7651 9.88184 20.8709 9.88184C19.1359 9.88184 17.7391 11.2901 17.7391 13.0165C17.7391 13.2649 17.7601 13.5037 17.8117 13.7311C15.2064 13.604 12.9011 12.3553 11.3524 10.4532C11.082 10.9222 10.9234 11.4592 10.9234 12.0372C10.9234 13.1225 11.4823 14.0846 12.3154 14.6416C11.8119 14.632 11.318 14.4858 10.8995 14.2556C10.8995 14.2651 10.8995 14.2776 10.8995 14.29C10.8995 15.8129 11.9858 17.0778 13.4103 17.3692C13.1552 17.4389 12.8772 17.4724 12.5887 17.4724C12.388 17.4724 12.1855 17.4609 11.9954 17.4189C12.4014 18.6599 13.5536 19.5723 14.9236 19.6019C13.8574 20.436 12.5036 20.9385 11.0381 20.9385C10.7811 20.9385 10.5346 20.927 10.2881 20.8955C11.6763 21.7907 13.3214 22.3018 15.0956 22.3018C20.8623 22.3018 24.015 17.5249 24.015 13.3843C24.015 13.2457 24.0103 13.112 24.0036 12.9792C24.6255 12.5378 25.1481 11.9865 25.5742 11.3522Z" fill="#040932"/>
</svg>
