<svg width="329" height="161" viewBox="0 0 329 161" fill="none" xmlns="http://www.w3.org/2000/svg">
    <path d="M48.0013 118.352L28.1396 160.279L29.4002 160.877L49.2619 118.95L48.0013 118.352Z" fill="#254E70"/>
    <path d="M19.8617 118.349L0 160.276L1.26056 160.873L21.1223 118.946L19.8617 118.349Z" fill="#254E70"/>
    <path d="M42.3931 131.278H14.2529V132.673H42.3931V131.278Z" fill="#254E70"/>
    <path d="M35.6627 144.256H7.52246V145.651H35.6627V144.256Z" fill="#254E70"/>
    <path d="M47.669 10.411C47.669 10.411 51.8537 8.47029 52.3995 7.01476C52.8847 5.55923 53.4305 1.98106 45.4857 2.04171C45.4857 2.04171 43.9696 -1.17258 39.5423 0.464886C36.328 1.67783 31.4156 7.43929 31.5369 15.0808C31.6582 22.7223 21.6515 19.2048 22.2579 30.1819C22.5612 35.5795 41.3011 55.2291 46.1528 33.6388C48.882 21.4487 43.8483 15.6873 47.669 10.411Z"
          fill="#453E6B"/>
    <path d="M129.422 143.102L146.827 113.142L157.016 95.6151C158.957 92.2189 159.988 88.3981 160.048 84.5167L160.109 64.6851H157.805C155.924 64.6851 154.287 63.2296 154.226 61.3496C154.166 59.4089 155.743 57.832 157.683 57.832L180.668 57.8927C182.548 57.8927 184.186 59.3482 184.247 61.2283C184.307 63.169 182.73 64.7458 180.79 64.7458H177.818L177.757 84.5774C177.757 88.4588 178.788 92.3402 180.729 95.7364L190.796 113.263L208.081 143.344C210.143 146.922 207.535 151.35 203.472 151.35L168.782 151.289L134.092 151.228C129.907 151.107 127.36 146.68 129.422 143.102Z"
          fill="#E9F3FF"/>
    <path d="M203.352 151.539L134.032 151.417C132.031 151.417 130.211 150.386 129.241 148.628C128.21 146.869 128.271 144.807 129.241 143.048L129.423 143.169L129.241 143.048L156.775 95.5614C158.715 92.2258 159.746 88.4051 159.746 84.5843L159.807 64.9347H157.745C155.683 64.9347 153.985 63.3578 153.924 61.3565C153.924 60.3255 154.288 59.4158 154.955 58.688C155.622 57.9603 156.593 57.5964 157.563 57.5964L180.548 57.657C182.61 57.657 184.308 59.2338 184.369 61.2352C184.369 62.2662 184.005 63.1759 183.338 63.9037C182.671 64.6314 181.701 64.9953 180.73 64.9953H178.001L177.94 84.6449C177.94 88.5264 178.971 92.2865 180.852 95.6827L208.203 143.291C209.234 145.049 209.174 147.111 208.203 148.87C207.172 150.508 205.353 151.539 203.352 151.539ZM157.563 58.0209C156.714 58.0209 155.865 58.3848 155.258 58.9913C154.652 59.5977 154.349 60.4468 154.349 61.3565C154.409 63.0546 155.926 64.4495 157.684 64.5101H160.232L160.171 84.5843C160.171 88.5263 159.14 92.4078 157.139 95.804L129.605 143.291C128.695 144.867 128.695 146.808 129.605 148.385C130.515 149.962 132.152 150.932 134.032 150.932L203.352 151.053C205.171 151.053 206.869 150.083 207.779 148.506C208.688 146.929 208.688 144.989 207.779 143.412L180.427 95.804C178.486 92.4078 177.455 88.5263 177.455 84.5843L177.516 64.5101H180.67C181.519 64.5101 182.368 64.1462 182.974 63.5398C183.581 62.9333 183.884 62.0843 183.884 61.1745C183.823 59.4764 182.307 58.0815 180.548 58.0209H157.563Z"
          fill="#F0F8FF"/>
    <path d="M171.512 123.462C160.292 125.827 150.468 125.16 143.251 123.765L131.849 142.687C129.908 145.901 132.334 149.904 136.155 149.904L168.601 149.964L201.047 150.025C204.868 150.025 207.294 146.022 205.414 142.808L193.224 122.37C187.402 121.642 180.124 121.642 171.512 123.462Z"
          fill="#FF8C91"/>
    <path d="M143.794 130.675C144.297 130.675 144.704 130.268 144.704 129.765C144.704 129.263 144.297 128.856 143.794 128.856C143.292 128.856 142.885 129.263 142.885 129.765C142.885 130.268 143.292 130.675 143.794 130.675Z"
          fill="#E26F7A"/>
    <path d="M170.117 132.678C170.921 132.678 171.572 132.026 171.572 131.222C171.572 130.418 170.921 129.766 170.117 129.766C169.313 129.766 168.661 130.418 168.661 131.222C168.661 132.026 169.313 132.678 170.117 132.678Z"
          fill="#E26F7A"/>
    <path d="M152.165 144.684C153.17 144.684 153.985 143.869 153.985 142.864C153.985 141.859 153.17 141.045 152.165 141.045C151.16 141.045 150.346 141.859 150.346 142.864C150.346 143.869 151.16 144.684 152.165 144.684Z"
          fill="#E26F7A"/>
    <path d="M158.471 128.734C158.471 129.401 157.925 130.008 157.197 130.008C156.53 130.008 155.924 129.462 155.924 128.734C155.924 128.067 156.47 127.461 157.197 127.461C157.925 127.461 158.471 128.007 158.471 128.734Z"
          fill="#E26F7A"/>
    <path d="M189.278 140.376C190.517 140.376 191.522 139.372 191.522 138.132C191.522 136.893 190.517 135.888 189.278 135.888C188.039 135.888 187.034 136.893 187.034 138.132C187.034 139.372 188.039 140.376 189.278 140.376Z"
          fill="#E26F7A"/>
    <path d="M166.842 146.02C167.847 146.02 168.661 145.205 168.661 144.2C168.661 143.196 167.847 142.381 166.842 142.381C165.837 142.381 165.022 143.196 165.022 144.2C165.022 145.205 165.837 146.02 166.842 146.02Z"
          fill="#E26F7A"/>
    <path d="M184.306 126.372C184.306 127.221 183.578 127.949 182.729 127.949C181.88 127.949 181.152 127.221 181.152 126.372C181.152 125.523 181.88 124.795 182.729 124.795C183.578 124.795 184.306 125.462 184.306 126.372Z"
          fill="#E26F7A"/>
    <path d="M182.667 149.896C183.672 149.896 184.486 149.081 184.486 148.076C184.486 147.072 183.672 146.257 182.667 146.257C181.662 146.257 180.848 147.072 180.848 148.076C180.848 149.081 181.662 149.896 182.667 149.896Z"
          fill="#E26F7A"/>
    <path d="M179.092 135.403C179.092 136.13 178.486 136.737 177.758 136.737C177.03 136.737 176.424 136.13 176.424 135.403C176.424 134.675 177.03 134.068 177.758 134.068C178.486 134.008 179.092 134.614 179.092 135.403Z"
          fill="#E26F7A"/>
    <path d="M141.489 146.382C141.489 147.17 140.822 147.838 140.034 147.838C139.245 147.838 138.578 147.17 138.578 146.382C138.578 145.594 139.245 144.927 140.034 144.927C140.822 144.927 141.489 145.533 141.489 146.382Z"
          fill="#E26F7A"/>
    <path d="M158.35 137.464C159.422 137.464 160.291 136.595 160.291 135.523C160.291 134.452 159.422 133.583 158.35 133.583C157.278 133.583 156.409 134.452 156.409 135.523C156.409 136.595 157.278 137.464 158.35 137.464Z"
          fill="#E26F7A"/>
    <path d="M195.165 143.29C195.165 142.683 195.65 142.138 196.317 142.138C196.924 142.138 197.47 142.623 197.47 143.29C197.47 143.957 196.984 144.442 196.317 144.442C195.65 144.442 195.165 143.957 195.165 143.29Z"
          fill="#E26F7A"/>
    <g opacity="0.33">
        <path opacity="0.33"
              d="M143.492 137.765C147.859 129.032 152.165 120.299 156.531 111.566C158.23 108.109 159.988 104.652 161.686 101.195C163.809 96.95 164.901 92.3408 164.901 87.6103C164.901 85.9728 164.901 84.396 164.901 82.7585C164.901 77.2397 164.901 71.6601 164.901 66.1413C164.901 64.6857 162.657 64.6857 162.657 66.1413C162.657 70.8717 162.657 75.6022 162.657 80.3327C162.657 82.6373 162.657 84.9418 162.657 87.1858C162.657 91.613 161.747 95.9796 159.806 99.9823C155.561 108.594 151.255 117.206 146.949 125.818C145.13 129.457 143.371 133.035 141.552 136.674C140.885 137.947 142.825 139.1 143.492 137.765Z"
              fill="#F0F8FF"/>
    </g>
    <path d="M307.603 125.268C308.148 126.056 309.786 155.834 309.786 155.834H313.849L314.638 133.94L307.603 125.268Z"
          fill="#4C5E9E"/>
    <path d="M314.211 159.049H303.962C303.598 159.049 303.537 158.564 303.841 158.443L309.784 155.775H313.847L314.575 158.625C314.575 158.868 314.454 159.049 314.211 159.049Z"
          fill="#453E6B"/>
    <path d="M299.474 125.268C300.02 126.056 297.291 155.834 297.291 155.834H301.354L306.509 126.359L299.474 125.268Z"
          fill="#4C5E9E"/>
    <path d="M301.781 159.049H291.531C291.167 159.049 291.107 158.564 291.41 158.443L297.353 155.775H301.417L302.144 158.625C302.144 158.868 301.963 159.049 301.781 159.049Z"
          fill="#453E6B"/>
    <path d="M304.509 60.1941C304.509 60.1941 297.05 61.7103 294.624 76.5688L299.476 77.6604L303.903 70.2008L304.509 60.1941Z"
          fill="#F0F3FF"/>
    <path d="M308.39 54.6749C308.39 54.6749 307.298 58.9808 305.115 60.3757C302.932 61.7099 304.327 79.2976 304.327 79.2976L312.999 71.4741L313.788 61.2247L312.332 59.0415C312.332 59.0415 310.513 56.0698 312.15 52.249C313.788 48.4282 308.39 54.6749 308.39 54.6749Z"
          fill="#FFCCB0"/>
    <path d="M305.177 58.1912C305.177 58.1912 306.511 62.2545 314.092 58.1912C321.673 54.1278 319.49 66.3179 319.49 66.3179L309.725 76.3246L304.025 78.0228L302.145 74.6872L305.177 58.1912Z"
          fill="#FF8C91"/>
    <path opacity="0.31"
          d="M307.301 55.1586C307.301 55.1586 309.848 56.6748 313.547 52.3689C317.307 48.1842 306.815 50.3069 307.301 55.1586Z"
          fill="#FFCCB0"/>
    <path d="M311.91 58.9791L305.178 75.2325L306.512 58.9791C306.512 58.9791 297.719 60.3134 297.719 86.6948C297.719 113.076 292.442 134.97 292.442 134.97C292.442 134.97 299.902 131.574 307.968 133.636C316.095 135.637 321.492 133.636 321.492 133.636L315.124 90.091L317.975 72.5034C317.975 72.5034 322.038 62.3754 311.91 58.9791Z"
          fill="#F0F3FF"/>
    <path opacity="0.3"
          d="M312.636 60.3078C312.636 60.3078 318.094 59.8833 322.946 70.3146C327.859 80.6852 328.465 84.2634 327.131 84.8698C325.736 85.4763 318.943 90.9346 306.45 87.417L308.027 82.7472C308.027 82.7472 309.543 84.6879 317.124 82.9898C317.124 82.9898 318.58 72.2553 314.698 68.6771C310.756 65.0989 312.636 60.3078 312.636 60.3078Z"
          fill="#E1E9FF"/>
    <path opacity="0.3"
          d="M301.356 91.9675C301.356 91.9675 299.172 133.086 297.838 140.121C296.564 146.792 299.475 140.121 299.475 140.121L301.356 91.9675Z"
          fill="#E1E9FF"/>
    <path d="M314.454 49.0955C313.423 52.9163 310.391 55.4028 307.723 54.675C305.054 53.9473 303.72 50.2478 304.812 46.427C305.903 42.6063 308.875 40.1198 311.543 40.8475C314.212 41.5753 315.485 45.2748 314.454 49.0955Z"
          fill="#FFCCB0"/>
    <path d="M306.511 58.6787L303.176 61.1652L305.177 74.9321L306.511 58.6787Z" fill="#E1E9FF"/>
    <path d="M310.029 46.8482C309.726 47.8792 308.998 48.5463 308.331 48.3643C307.664 48.1824 307.361 47.212 307.603 46.1811C307.907 45.1501 308.635 44.4829 309.302 44.6649C310.029 44.8468 310.333 45.8172 310.029 46.8482Z"
          stroke="#453E6B" stroke-width="0.4029" stroke-miterlimit="10"/>
    <path d="M306.936 46.0597C306.632 47.0907 305.905 47.7578 305.238 47.5759C304.57 47.3939 304.267 46.4236 304.51 45.3926C304.813 44.3616 305.541 43.6945 306.208 43.8764C306.936 43.9977 307.239 45.0287 306.936 46.0597Z"
          stroke="#453E6B" stroke-width="0.4029" stroke-miterlimit="10"/>
    <path d="M310.15 46.9104L313.971 48.5479" stroke="#453E6B" stroke-width="0.4029" stroke-miterlimit="10"/>
    <path d="M306.997 45.6969C306.997 45.6969 307.543 45.5756 307.664 45.9395" stroke="#453E6B" stroke-width="0.4029"
          stroke-miterlimit="10"/>
    <path d="M313.122 49.0933C313.122 49.0933 312.576 48.3049 313.122 46.9101C313.667 45.5758 311.909 42.7254 308.088 42.4222C304.328 42.1796 304.813 39.1472 305.359 38.1162C305.905 37.0246 308.209 35.5691 310.089 36.9033C311.969 38.2375 313.061 41.2092 316.154 42.1796C319.671 43.2712 318.883 52.1863 312.697 52.3683C312.818 52.4289 314.213 49.9424 313.122 49.0933Z"
          fill="#453E6B"/>
    <path d="M314.696 49.701C314.454 50.2469 313.908 50.5501 313.544 50.3682C313.12 50.1862 312.998 49.5797 313.241 49.0339C313.483 48.4881 314.029 48.1849 314.393 48.3668C314.818 48.5487 314.939 49.1552 314.696 49.701Z"
          fill="#FFCCB0"/>
    <path d="M291.652 74.685L304.873 73.2294L306.814 92.2726L296.504 93.6068L291.652 74.685Z" fill="#BEB9EF"/>
    <path d="M300.629 82.9964C300.265 83.057 299.841 82.8751 299.356 82.5112C298.749 82.026 298.143 81.2983 297.657 80.4492C297.172 79.6002 296.808 78.6905 296.687 77.9627C296.566 77.1743 296.687 76.6285 297.051 76.4465C297.415 76.2646 297.961 76.3859 298.567 76.871C299.174 77.3562 299.78 78.084 300.265 78.933C300.75 79.7821 301.114 80.6918 301.236 81.4196C301.357 82.208 301.236 82.7538 300.872 82.9357C300.811 82.9357 300.75 82.9358 300.629 82.9964ZM297.354 76.3859C297.294 76.3859 297.233 76.4465 297.172 76.4465C296.869 76.6285 296.748 77.1136 296.869 77.8414C296.99 78.5692 297.354 79.4789 297.839 80.3279C298.325 81.177 298.931 81.9048 299.537 82.3899C300.083 82.8751 300.629 82.9964 300.932 82.8145C301.236 82.6325 301.357 82.1473 301.236 81.4196C301.114 80.6918 300.75 79.7821 300.265 78.933C299.78 78.084 299.174 77.3562 298.567 76.871C298.082 76.5072 297.657 76.3252 297.354 76.3859Z"
          fill="#F0F3FF"/>
    <path d="M300.749 81.1172C300.143 81.1779 299.536 81.1779 298.869 81.1172C297.899 80.9959 296.929 80.814 296.261 80.4501C295.594 80.0862 295.23 79.6617 295.23 79.2978C295.291 78.8733 295.716 78.57 296.443 78.3274C297.171 78.1455 298.142 78.0242 299.112 78.1455C300.082 78.2668 301.053 78.4487 301.72 78.8126C302.387 79.1765 302.751 79.601 302.751 79.9649C302.69 80.3894 302.266 80.6927 301.538 80.9353C301.295 80.9959 301.053 81.0566 300.749 81.1172ZM297.232 78.2668C296.989 78.3274 296.686 78.3274 296.443 78.4487C295.716 78.6307 295.352 78.9339 295.291 79.2978C295.23 79.6617 295.594 80.0256 296.261 80.3894C296.929 80.7533 297.838 80.9353 298.809 81.0566C299.779 81.1779 300.749 81.0566 301.477 80.8746C302.205 80.6927 302.569 80.3894 302.629 80.0256C302.69 79.6617 302.326 79.2978 301.659 78.9339C300.992 78.57 300.082 78.3881 299.112 78.2668C298.445 78.1455 297.778 78.2061 297.232 78.2668Z"
          fill="#F0F3FF"/>
    <path d="M297.778 83.1189C297.656 83.1189 297.474 83.1189 297.353 83.0582C296.989 82.8763 296.807 82.3305 296.868 81.6027C296.929 80.8143 297.171 79.9046 297.596 78.9949H297.656H297.596C298.02 78.0852 298.566 77.2968 299.112 76.7509C299.658 76.2051 300.204 76.0232 300.567 76.2051C300.931 76.3871 301.113 76.9329 301.053 77.6607C300.992 78.4491 300.749 79.3588 300.325 80.2685C299.9 81.1782 299.354 81.9666 298.809 82.5124C298.445 82.8763 298.081 83.0582 297.778 83.1189ZM300.204 76.2658C299.9 76.3264 299.597 76.5084 299.233 76.8722C298.687 77.3574 298.142 78.1458 297.717 79.0555C297.292 79.9652 297.05 80.8749 296.989 81.6027C296.929 82.3305 297.111 82.8157 297.414 82.9976C297.717 83.1795 298.202 82.9369 298.748 82.4518C299.294 81.9666 299.84 81.1782 300.264 80.2685C300.689 79.3588 300.931 78.4491 300.992 77.7213C301.053 76.9935 300.871 76.5084 300.567 76.3264C300.446 76.2658 300.325 76.2658 300.204 76.2658Z"
          fill="#F0F3FF"/>
    <path d="M299.415 79.4746C299.537 79.7172 299.476 79.9598 299.234 80.0811C298.991 80.2023 298.748 80.1417 298.627 79.8991C298.506 79.6565 298.566 79.4139 298.809 79.2926C299.052 79.232 299.294 79.2926 299.415 79.4746Z"
          fill="#F0F3FF"/>
    <path d="M308.936 82.7495L307.056 81.6579C307.056 81.6579 304.872 81.6579 303.781 81.1121C302.932 80.6875 302.992 87.2981 306.328 85.5393L309.724 84.6296L308.936 82.7495Z"
          fill="#FFCCB0"/>
    <path d="M311.91 58.9796C311.91 58.9796 317.307 58.3125 322.705 68.4406C328.102 78.5686 328.951 82.0861 327.556 82.7532C326.222 83.4204 319.733 89.2425 306.997 86.3314L308.331 81.6009C308.331 81.6009 313.85 81.7829 321.31 79.7815C321.31 79.7815 318.581 73.171 314.517 69.7748C310.575 66.4392 311.91 58.9796 311.91 58.9796Z"
          fill="#F0F3FF"/>
    <path d="M312.031 58.3101C311.91 58.4314 314.578 63.0405 314.578 63.0405L305.178 75.2306L312.031 58.3101Z"
          fill="#E1E9FF"/>
    <path d="M292.988 83.3012C292.988 83.3012 292.745 86.8187 293.776 86.8187C294.868 86.8187 296.505 88.1529 296.748 86.8187C297.051 85.4845 296.505 79.7837 292.988 83.3012Z"
          fill="#FFCCB0"/>
    <path d="M33.8416 84.2775C33.2958 85.0659 31.2338 115.571 31.2338 115.571H28.5047L26.8672 92.95L33.8416 84.2775Z"
          fill="#FFCCB0"/>
    <path d="M27.8979 117.693H35.6607C35.9033 117.693 36.0246 117.329 35.782 117.207L31.2941 115.206H28.2011L27.6553 117.389C27.6553 117.571 27.7766 117.693 27.8979 117.693Z"
          fill="#453E6B"/>
    <path d="M43.242 84.2775C42.6962 85.0659 40.6342 115.571 40.6342 115.571H37.9051L36.2676 92.95L43.242 84.2775Z"
          fill="#FFCCB0"/>
    <path d="M37.2974 117.699H45.0602C45.3028 117.699 45.4241 117.335 45.1815 117.214L40.6937 115.273H37.6007L37.0548 117.457C36.9942 117.578 37.1155 117.699 37.2974 117.699Z"
          fill="#453E6B"/>
    <path d="M42.5756 22.2383C42.5756 22.2383 49.732 24.7855 50.0352 39.826L45.0621 40.1899L41.7266 32.1845L42.5756 22.2383Z"
          fill="#F0F3FF"/>
    <path d="M40.7529 17.0929C40.7529 17.0929 40.3284 21.5202 41.8446 23.5215C43.4214 25.5229 36.1438 41.5943 36.1438 41.5943L30.6855 31.2843L33.4147 21.3382L35.4767 19.822C35.4767 19.822 38.2058 17.6388 37.9632 13.5148C37.7812 9.39076 40.7529 17.0929 40.7529 17.0929Z"
          fill="#FFCCB0"/>
    <path d="M42.6341 21.5204C42.6341 21.5204 39.9657 24.856 34.2649 18.4881C28.5034 12.1201 26.4414 24.3102 26.4414 24.3102L32.2029 37.046L36.9333 40.5636L39.8444 38.077L42.6341 21.5204Z"
          fill="#FF8C91"/>
    <path opacity="0.31"
          d="M41.6049 17.9399C41.6049 17.9399 38.6938 18.4858 36.6318 13.2095C34.5698 7.93318 43.7275 13.5734 41.6049 17.9399Z"
          fill="#FFCCB0"/>
    <path d="M35.4194 19.9924L39.8466 37.0342L40.817 20.7808C40.817 20.7808 46.6997 23.0854 45.6081 49.4669C44.5164 76.1515 48.7011 94.6489 48.7011 94.6489C48.7011 94.6489 41.848 93.254 33.5393 94.103C25.2307 94.9521 19.166 93.7998 19.166 93.7998L27.8385 50.3159L27.5353 32.5464C27.4747 32.4857 24.8668 21.8725 35.4194 19.9924Z"
          fill="#F0F3FF"/>
    <path opacity="0.3"
          d="M34.5096 21.2052C34.5096 21.2052 29.1727 20.0529 22.8654 29.6351C16.5581 39.278 15.4058 42.6742 16.6794 43.4626C17.953 44.251 23.8964 50.619 36.8142 48.9209L35.9045 44.0691C35.9045 44.0691 34.0851 45.7672 26.8681 43.0381C26.8681 43.0381 26.9287 32.1823 31.2953 29.2106C35.6619 26.2389 34.5096 21.2052 34.5096 21.2052Z"
          fill="#E1E9FF"/>
    <path opacity="0.3"
          d="M41.1799 54.1375C41.1799 54.1375 37.5411 95.1348 37.9049 102.291C38.2082 109.084 36.3281 102.049 36.3281 102.049L41.1799 54.1375Z"
          fill="#E1E9FF"/>
    <path d="M39.238 7.80169C36.9335 11.016 36.9335 14.958 39.1774 16.5349C41.4213 18.1117 45.1208 16.7774 47.4254 13.5632C49.73 10.3489 49.73 6.40681 47.486 4.82999C45.2421 3.19252 41.5426 4.52675 39.238 7.80169Z"
          fill="#FFCCB0"/>
    <path d="M40.7554 20.4813L43.7271 23.3924L39.8457 36.7347L40.7554 20.4813Z" fill="#E1E9FF"/>
    <path d="M43.7881 9.74902C43.1816 10.5981 43.121 11.6291 43.7274 12.0536C44.2732 12.4781 45.2436 12.0536 45.8501 11.2046C46.4565 10.3555 46.5172 9.32449 45.9107 8.89997C45.3649 8.53608 44.3945 8.89997 43.7881 9.74902Z"
          stroke="#453E6B" stroke-width="0.4029" stroke-miterlimit="10"/>
    <path d="M46.3965 11.6249C45.79 12.474 45.7294 13.505 46.3358 13.9295C46.8816 14.354 47.852 13.9295 48.4585 13.0804C49.0649 12.2314 49.1256 11.2004 48.5191 10.7759C47.9126 10.3513 47.0029 10.7759 46.3965 11.6249Z"
          stroke="#453E6B" stroke-width="0.4029" stroke-miterlimit="10"/>
    <path d="M43.6076 9.74773L39.9688 7.86768" stroke="#453E6B" stroke-width="0.4029" stroke-miterlimit="10"/>
    <path d="M46.5762 11.3812C46.5762 11.3812 46.3336 10.896 45.9697 11.0173" stroke="#453E6B" stroke-width="0.4029"
          stroke-miterlimit="10"/>
    <path d="M37.4807 8.8351C37.5414 9.68416 38.0872 10.3513 38.7543 10.3513C39.4214 10.2906 39.9066 9.56287 39.8459 8.71381C39.7853 7.86475 39.2395 7.19763 38.5724 7.19763C37.9052 7.25828 37.4201 7.98604 37.4807 8.8351Z"
          fill="#FFCCB0"/>
    <path d="M53.2505 38.3685L40.3934 35.033L35.7842 53.6516L45.7909 56.3807L53.2505 38.3685Z" fill="#BEB9EF"/>
    <path d="M42.937 45.1596C42.6338 44.917 42.5731 44.3712 42.8157 43.5828C43.0583 42.855 43.4828 42.006 44.1499 41.2176C44.7564 40.4292 45.4842 39.762 46.1513 39.3982C46.8184 39.0343 47.3642 38.913 47.6675 39.1556C47.9707 39.3982 48.0313 39.944 47.7888 40.7324C47.5462 41.4602 47.1216 42.3092 46.4545 43.0976C45.8481 43.886 45.1203 44.5532 44.4532 44.917C43.9073 45.2203 43.4828 45.3416 43.1189 45.2203C43.0583 45.2809 42.9976 45.2203 42.937 45.1596ZM46.1513 39.5801C45.4842 39.944 44.8171 40.6111 44.2106 41.3389C43.6041 42.1273 43.1189 42.9157 42.937 43.6434C42.6944 44.3712 42.7551 44.8564 43.0583 45.099C43.3615 45.3416 43.8467 45.2203 44.4532 44.8564C45.1203 44.4925 45.7874 43.8254 46.3939 43.0976C47.0003 42.3092 47.4855 41.5208 47.6675 40.793C47.91 40.0653 47.8494 39.5801 47.5462 39.3375C47.4855 39.2769 47.4249 39.2769 47.3642 39.2162C47.061 39.1556 46.6365 39.2769 46.1513 39.5801Z"
          fill="#F0F3FF"/>
    <path d="M42.5741 43.1566C41.8463 42.8534 41.4824 42.4289 41.4824 42.0044C41.4824 41.5798 41.9069 41.2159 42.6347 40.9734C43.3625 40.7308 44.3328 40.6095 45.3032 40.6701C46.3342 40.7308 47.2439 40.9127 47.911 41.2159C48.6388 41.5192 49.0026 41.9437 49.0026 42.3682C49.0026 42.7928 48.5781 43.1566 47.8504 43.3992C47.1226 43.6418 46.1522 43.7631 45.1819 43.7025C44.5148 43.6418 43.8477 43.5812 43.3018 43.3992C43.0592 43.3386 42.8167 43.2779 42.5741 43.1566ZM45.3638 40.8521C44.3935 40.7914 43.4231 40.9127 42.756 41.1553C42.0889 41.3979 41.6644 41.7011 41.6644 42.065C41.6644 42.4289 42.0282 42.7928 42.6954 43.096C43.3625 43.3992 44.2722 43.5812 45.3032 43.6418C46.2735 43.7025 47.2439 43.5812 47.911 43.3386C48.5781 43.096 49.0026 42.7928 49.0026 42.4289C49.0026 42.065 48.6388 41.7011 47.9716 41.3979C47.7291 41.2766 47.4865 41.2159 47.2439 41.1553C46.6374 40.9734 46.0309 40.8521 45.3638 40.8521Z"
          fill="#F0F3FF"/>
    <path d="M45.0617 45.095C44.5765 44.4885 44.152 43.6395 43.8488 42.6691C43.5455 41.6988 43.4242 40.7891 43.4849 40.0006C43.5455 39.2122 43.7881 38.7271 44.152 38.6058C44.5159 38.4845 45.0011 38.7271 45.4862 39.3335C45.9714 39.94 46.3959 40.7891 46.6992 41.7594H46.6385H46.6992C47.0024 42.7298 47.1237 43.6395 47.0631 44.4279C47.0024 45.2163 46.7598 45.7015 46.3959 45.8228C46.2747 45.8834 46.1534 45.8834 45.9714 45.8228C45.7288 45.7621 45.3649 45.4589 45.0617 45.095ZM44.2127 38.7271C43.8488 38.8484 43.6668 39.2729 43.6062 40.0006C43.5455 40.7284 43.6668 41.6988 43.9701 42.6085C44.2733 43.5788 44.6978 44.3672 45.1224 44.9737C45.6075 45.5195 46.0321 45.8228 46.3959 45.7015C46.7598 45.5802 46.9418 45.1556 47.0024 44.4279C47.0631 43.7001 46.9418 42.7298 46.6385 41.8201C46.3353 40.8497 45.9108 40.0613 45.4862 39.4548C45.183 39.0303 44.8798 38.7877 44.5765 38.7271C44.3946 38.6664 44.3339 38.6664 44.2127 38.7271Z"
          fill="#F0F3FF"/>
    <path d="M44.8784 42.0025C44.6965 42.1844 44.7571 42.4877 44.9391 42.6696C45.121 42.8515 45.4242 42.7909 45.6062 42.609C45.7881 42.427 45.7275 42.1238 45.5455 41.9418C45.3029 41.8205 44.9997 41.8205 44.8784 42.0025Z"
          fill="#F0F3FF"/>
    <path d="M34.995 43.9467L36.9963 43.1583C36.9963 43.1583 39.119 43.4616 40.2713 43.0977C41.181 42.7944 40.2106 49.2837 37.1176 47.1004L33.9033 45.7055L34.995 43.9467Z"
          fill="#FFCCB0"/>
    <path d="M35.4191 19.9947C35.4191 19.9947 30.1428 18.5392 23.3503 27.8182C16.5579 37.0972 15.2843 40.4934 16.4972 41.3425C17.7708 42.1915 23.3503 48.8627 36.3288 47.7711L35.6617 42.9193C35.6617 42.9193 30.1428 42.3128 23.0471 39.2805C23.0471 39.2805 26.6859 33.0945 31.1738 30.3047C35.6617 27.515 35.4191 19.9947 35.4191 19.9947Z"
          fill="#F0F3FF"/>
    <path d="M35.3578 19.2673C35.4791 19.3886 32.1436 23.5733 32.1436 23.5733L39.7851 36.9763L35.3578 19.2673Z"
          fill="#E1E9FF"/>
    <path d="M50.7023 46.7421C50.7023 46.7421 50.4598 50.2597 49.4288 50.1384C48.3371 49.9564 46.5783 51.1087 46.4571 49.7139C46.3964 48.319 47.7306 42.7394 50.7023 46.7421Z"
          fill="#FFCCB0"/>
    <path d="M241.254 54.8701L240.89 28.2461L243.923 28.1855C246.045 28.1855 247.743 26.4267 247.683 24.304C247.683 22.1814 245.924 20.4833 243.801 20.5439L218.026 20.9078C215.904 20.9078 214.206 22.6666 214.266 24.7892C214.266 26.9119 216.025 28.61 218.148 28.5493L221.18 28.4887L221.544 55.1127C206.685 59.6006 196.011 73.4888 196.254 89.7421C196.497 109.452 212.689 125.16 232.4 124.917C252.11 124.675 267.817 108.482 267.575 88.7718C267.272 72.5184 256.173 58.9941 241.254 54.8701Z"
          fill="#E9F3FF"/>
    <path d="M231.853 125.219C222.452 125.219 213.598 121.641 206.805 115.03C199.952 108.359 196.071 99.3832 195.95 89.801C195.828 81.8563 198.254 74.2754 202.985 67.9075C207.533 61.7821 214.022 57.2336 221.239 54.9897L220.876 28.7902L218.086 28.8508H218.025C215.781 28.8508 213.962 27.0314 213.962 24.8481C213.901 22.6042 215.721 20.7241 217.964 20.7241L243.739 20.3602C245.983 20.2996 247.863 22.119 247.863 24.3629C247.863 25.4546 247.439 26.4856 246.711 27.274C245.923 28.0624 244.952 28.4869 243.861 28.4869L241.071 28.5476L241.435 54.7471C248.713 56.7484 255.323 61.1756 260.054 67.1797C264.966 73.4263 267.574 80.8859 267.695 88.8307C267.938 108.602 252.109 124.976 232.277 125.219C232.156 125.219 231.974 125.219 231.853 125.219ZM221.361 28.305L221.725 55.3535L221.543 55.4142C214.326 57.5975 207.897 62.146 203.349 68.2107C198.679 74.518 196.253 81.9776 196.374 89.801C196.495 99.2619 200.316 108.116 207.109 114.727C213.901 121.337 222.877 124.855 232.277 124.734C251.806 124.491 267.513 108.359 267.21 88.8307C267.089 81.0072 264.481 73.6083 259.629 67.4223C254.959 61.4789 248.349 57.1123 241.132 55.111L240.95 55.0503V54.8684L240.586 28.0018L243.861 27.9411C244.831 27.9411 245.741 27.5166 246.408 26.8495C247.075 26.1823 247.439 25.2726 247.439 24.3023C247.439 22.3009 245.801 20.7241 243.861 20.7241H243.8L218.025 21.088C216.024 21.088 214.447 22.7255 214.447 24.7268C214.447 25.6972 214.872 26.6069 215.539 27.274C216.206 27.9411 217.176 28.305 218.086 28.305H221.361Z"
          fill="#F0F8FF"/>
    <path d="M221.12 90.0442C212.084 86.8299 204.806 87.1331 200.015 88.0428C199.954 89.0738 199.894 90.1048 199.894 91.1965C200.136 108.784 214.631 122.915 232.218 122.672C249.806 122.43 263.937 107.935 263.694 90.3474C263.694 90.2261 263.694 90.0442 263.694 89.9229C252.596 95.3205 233.613 94.4714 221.12 90.0442Z"
          fill="#BEB9EF"/>
    <path d="M214.689 99.0793C214.689 99.8677 214.083 100.474 213.294 100.474C212.506 100.474 211.899 99.8677 211.899 99.0793C211.899 98.2909 212.506 97.6844 213.294 97.6844C214.083 97.6844 214.689 98.2909 214.689 99.0793Z"
          fill="#9D9BDD"/>
    <path d="M237.494 112.912C237.494 114.488 236.22 115.701 234.704 115.701C233.127 115.701 231.914 114.428 231.914 112.912C231.914 111.335 233.188 110.122 234.704 110.122C236.22 110.122 237.494 111.335 237.494 112.912Z"
          fill="#9D9BDD"/>
    <path d="M218.691 105.023C218.691 105.751 218.084 106.297 217.417 106.297C216.689 106.297 216.144 105.69 216.144 105.023C216.144 104.295 216.75 103.75 217.417 103.75C218.145 103.75 218.691 104.356 218.691 105.023Z"
          fill="#9D9BDD"/>
    <path d="M251.563 98.1097C251.563 99.8078 250.168 101.142 248.53 101.142C246.832 101.142 245.498 99.7472 245.498 98.1097C245.498 96.4722 246.893 95.0773 248.53 95.0773C250.168 95.0773 251.563 96.4722 251.563 98.1097Z"
          fill="#9D9BDD"/>
    <path d="M231.126 101.391C231.897 101.391 232.521 100.766 232.521 99.9957C232.521 99.2253 231.897 98.6008 231.126 98.6008C230.356 98.6008 229.731 99.2253 229.731 99.9957C229.731 100.766 230.356 101.391 231.126 101.391Z"
          fill="#9D9BDD"/>
    <path d="M214.688 91.0771C214.688 91.441 214.385 91.8049 213.96 91.8049C213.596 91.8049 213.232 91.5017 213.232 91.0771C213.232 90.7133 213.536 90.3494 213.96 90.3494C214.385 90.41 214.688 90.7133 214.688 91.0771Z"
          fill="#9D9BDD"/>
    <path d="M218.024 118.066C219.062 118.066 219.904 117.224 219.904 116.186C219.904 115.148 219.062 114.306 218.024 114.306C216.985 114.306 216.144 115.148 216.144 116.186C216.144 117.224 216.985 118.066 218.024 118.066Z"
          fill="#9D9BDD"/>
    <path d="M247.561 109.153C247.561 110.305 246.59 111.276 245.438 111.276C244.286 111.276 243.315 110.305 243.315 109.153C243.315 108.001 244.286 107.03 245.438 107.03C246.59 107.03 247.561 108.001 247.561 109.153Z"
          fill="#9D9BDD"/>
    <path d="M223.607 97.2C223.607 98.3523 222.636 99.3226 221.484 99.3226C220.332 99.3226 219.361 98.3523 219.361 97.2C219.361 96.0477 220.332 95.0773 221.484 95.0773C222.697 95.0773 223.607 96.0477 223.607 97.2Z"
          fill="#9D9BDD"/>
    <path d="M260.357 98.5949C261.329 98.5949 262.116 97.8074 262.116 96.8361C262.116 95.8648 261.329 95.0773 260.357 95.0773C259.386 95.0773 258.599 95.8648 258.599 96.8361C258.599 97.8074 259.386 98.5949 260.357 98.5949Z"
          fill="#9D9BDD"/>
    <path d="M205.107 94.9588C205.107 96.0504 204.197 96.9601 203.106 96.9601C202.014 96.9601 201.104 96.0504 201.104 94.9588C201.104 93.8671 202.014 92.9574 203.106 92.9574C204.197 92.9574 205.107 93.8671 205.107 94.9588Z"
          fill="#9D9BDD"/>
    <path d="M226.698 86.7738C226.698 87.9868 225.727 89.0178 224.454 89.0178C223.18 89.0178 222.21 88.0474 222.21 86.7738C222.21 85.5609 223.18 84.5299 224.454 84.5299C225.727 84.5299 226.698 85.5003 226.698 86.7738Z"
          fill="#BEB9EF"/>
    <path d="M245.68 90.8345C245.68 93.1391 243.8 95.0798 241.435 95.0798C239.13 95.0798 237.189 93.1997 237.189 90.8345C237.189 88.5299 239.07 86.5892 241.435 86.5892C243.8 86.6498 245.68 88.5299 245.68 90.8345Z"
          fill="#BEB9EF"/>
    <path d="M248.287 74.6994C248.287 75.7304 247.438 76.5794 246.407 76.5794C245.376 76.5794 244.527 75.7304 244.527 74.6994C244.527 73.6684 245.376 72.8193 246.407 72.8193C247.438 72.8193 248.287 73.6077 248.287 74.6994Z"
          fill="#BEB9EF"/>
    <path d="M229.002 70.0956C229.002 71.0659 228.213 71.8543 227.243 71.8543C226.273 71.8543 225.484 71.0659 225.484 70.0956C225.484 69.1252 226.273 68.3368 227.243 68.3368C228.213 68.3368 229.002 69.1252 229.002 70.0956Z"
          fill="#BEB9EF"/>
    <path d="M218.54 88.8179C219.305 85.5915 217.309 82.3558 214.083 81.5908C210.856 80.8258 207.621 82.8212 206.856 86.0476C206.091 89.274 208.086 92.5097 211.313 93.2747C214.539 94.0397 217.775 92.0443 218.54 88.8179Z"
          fill="#BEB9EF"/>
    <path d="M250.35 86.1673C251.12 86.1673 251.745 85.5428 251.745 84.7724C251.745 84.002 251.12 83.3775 250.35 83.3775C249.58 83.3775 248.955 84.002 248.955 84.7724C248.955 85.5428 249.58 86.1673 250.35 86.1673Z"
          fill="#BEB9EF"/>
    <path d="M239.13 61.9056C239.13 63.5431 237.795 64.8167 236.219 64.8167C234.642 64.8167 233.308 63.4824 233.308 61.9056C233.308 60.2682 234.642 58.9946 236.219 58.9946C237.795 58.9946 239.13 60.2682 239.13 61.9056Z"
          fill="#BEB9EF"/>
    <path d="M236.281 78.7668C236.281 79.9798 235.31 81.0108 234.037 81.0108C232.763 81.0108 231.793 80.0404 231.793 78.7668C231.793 77.5539 232.763 76.5229 234.037 76.5229C235.31 76.5229 236.281 77.5539 236.281 78.7668Z"
          fill="#BEB9EF"/>
    <path d="M216.69 70.0349C217.159 70.0349 217.539 69.6548 217.539 69.1859C217.539 68.7169 217.159 68.3368 216.69 68.3368C216.221 68.3368 215.841 68.7169 215.841 69.1859C215.841 69.6548 216.221 70.0349 216.69 70.0349Z"
          fill="#BEB9EF"/>
    <g opacity="0.31">
        <path opacity="0.31"
              d="M227.913 56.872C216.511 60.3895 207.293 69.062 203.169 80.2817C201.956 83.496 201.289 86.8316 200.986 90.2278C200.864 91.5014 202.138 92.5931 203.351 92.5931C204.685 92.5931 205.595 91.5014 205.716 90.2278C206.868 76.8248 216.39 65.3019 229.186 61.3599C232.037 60.5108 230.824 56.0229 227.913 56.872Z"
              fill="#F0F8FF"/>
    </g>
    <g opacity="0.31">
        <path opacity="0.31"
              d="M241.01 118.61C248.591 116.306 254.655 110.544 257.384 103.145C258.173 101.023 258.597 98.7786 258.779 96.5346C258.84 95.6856 257.991 94.9578 257.203 94.9578C256.293 94.9578 255.747 95.6856 255.626 96.5346C254.837 105.389 248.591 113.031 240.1 115.638C238.281 116.184 239.13 119.217 241.01 118.61Z"
              fill="#F0F8FF"/>
    </g>
    <path d="M265.149 111.334H197.103C195.768 111.334 194.677 110.242 194.677 108.908C194.677 107.574 195.768 106.482 197.103 106.482H265.149C266.483 106.482 267.574 107.574 267.574 108.908C267.574 110.242 266.483 111.334 265.149 111.334Z"
          fill="#453E6B"/>
    <path d="M201.295 108.805L186.471 159.314L188.391 159.878L203.215 109.368L201.295 108.805Z" fill="#453E6B"/>
    <path d="M262.563 108.822L260.643 109.386L275.477 159.896L277.397 159.332L262.563 108.822Z" fill="#453E6B"/>
    <path d="M86.5458 21.0873H67.0781V62.6305H86.5458V21.0873Z" fill="#E9F3FF"/>
    <path d="M64.8327 24.7236C64.4082 26.1185 74.5363 44.2519 74.5363 44.2519L72.2923 44.7371L62.043 26.9069L64.8327 24.7236Z"
          fill="#E9F3FF"/>
    <path d="M58.5267 33.2692L80.1171 20.2301L64.0456 18.35C64.0456 18.4107 56.8893 24.9606 58.5267 33.2692Z"
          fill="#E9F3FF"/>
    <path d="M110.377 63.8986H90.9092V105.442H110.377V63.8986Z" fill="#E9F3FF"/>
    <path d="M97.2783 105.63L122.386 92.5306L107.71 87.9821L97.2783 105.63Z" fill="#E9F3FF"/>
    <path d="M108.25 37.5825H78.5938V101.99H108.25V37.5825Z" fill="#E9F3FF"/>
    <path d="M74.5326 44.2533C74.3507 46.9218 102.915 101.201 102.915 101.201L101.157 102.111L71.9248 45.8301L74.5326 44.2533Z"
          fill="#E9F3FF"/>
    <path d="M79.566 89.8554C87.6047 89.8554 94.1213 83.3388 94.1213 75.3001C94.1213 67.2615 87.6047 60.7449 79.566 60.7449C71.5274 60.7449 65.0107 67.2615 65.0107 75.3001C65.0107 83.3388 71.5274 89.8554 79.566 89.8554Z"
          fill="#E9F3FF"/>
    <path d="M92.3657 37.2773L66.4695 51.1655C65.2565 51.8326 63.801 51.3474 63.1339 50.1345C62.4668 48.9216 62.952 47.466 64.1649 46.7989L90.0611 32.9108C91.2741 32.2436 92.7296 32.7288 93.3967 33.9418C94.0032 35.1547 93.5787 36.6709 92.3657 37.2773Z"
          fill="#453E6B"/>
    <path d="M77.6886 20.4785L58.5241 30.7279C57.6144 31.2131 56.5228 30.8492 56.0376 30.0001C55.5524 29.0904 55.9163 27.9988 56.7654 27.5136L75.9298 17.2642C76.8395 16.7791 77.9312 17.143 78.4164 17.992C78.9015 18.9017 78.5983 20.054 77.6886 20.4785Z"
          fill="#453E6B"/>
    <path d="M116.018 123.759H97.9453V132.007H116.018V123.759Z" fill="#E9F3FF"/>
    <path d="M95.4615 144.137C74.417 144.137 57.2539 126.974 57.2539 105.929C57.2539 96.2255 60.8927 87.0072 67.5032 79.9115L71.4453 83.5503C65.8051 89.615 62.6515 97.5598 62.6515 105.929C62.6515 124.063 77.3887 138.739 95.4615 138.739V144.137Z"
          fill="#453E6B"/>
    <path d="M120.751 132.012H92.5498V158.394H120.751V132.012Z" fill="#E9F3FF"/>
    <path d="M131.301 125.819H82.2379C80.7217 125.819 79.5088 124.606 79.5088 123.09C79.5088 121.573 80.7217 120.361 82.2379 120.361H131.301C132.817 120.361 134.03 121.573 134.03 123.09C134.03 124.606 132.817 125.819 131.301 125.819Z"
          fill="#453E6B"/>
    <path d="M123.662 160.994H89.8209C88.3047 160.994 87.0918 159.781 87.0918 158.265C87.0918 156.749 88.3047 155.536 89.8209 155.536H123.662C125.178 155.536 126.391 156.749 126.391 158.265C126.452 159.72 125.178 160.994 123.662 160.994Z"
          fill="#453E6B"/>
    <path d="M77.3862 88.4023C85.6928 88.4023 92.4266 81.6685 92.4266 73.3619C92.4266 65.0553 85.6928 58.3214 77.3862 58.3214C69.0795 58.3214 62.3457 65.0553 62.3457 73.3619C62.3457 81.6685 69.0795 88.4023 77.3862 88.4023Z"
          fill="#453E6B"/>
    <path d="M77.386 81.7942C82.0417 81.7942 85.8159 78.02 85.8159 73.3643C85.8159 68.7085 82.0417 64.9343 77.386 64.9343C72.7303 64.9343 68.9561 68.7085 68.9561 73.3643C68.9561 78.02 72.7303 81.7942 77.386 81.7942Z"
          fill="#E9F3FF"/>
    <path d="M39.2989 8.65097C39.2989 8.65097 41.3002 6.16445 42.7558 6.04315C42.7558 6.04315 47.0617 8.89356 50.0941 7.37739C53.1264 5.86121 44.8784 3.0108 44.8784 3.0108L40.6331 3.49598C40.5725 3.55663 37.8434 7.07415 39.2989 8.65097Z"
          fill="#453E6B"/>
    <path d="M52.2179 117.753H16.0723V120.24H52.2179V117.753Z" fill="#33628F"/>
    <path d="M21.1014 118.285L19.8408 118.882L39.7025 160.81L40.963 160.212L21.1014 118.285Z" fill="#33628F"/>
    <path d="M49.2391 118.284L47.9785 118.881L67.8402 160.808L69.1007 160.211L49.2391 118.284Z" fill="#33628F"/>
    <path d="M54.8248 131.276H26.6846V132.671H54.8248V131.276Z" fill="#33628F"/>
    <path d="M61.5533 144.254H33.4131V145.649H61.5533V144.254Z" fill="#33628F"/>
</svg>

