<svg width="33" height="33" viewBox="0 0 33 33" fill="none" xmlns="http://www.w3.org/2000/svg">
<rect width="32.839" height="32.839" rx="10" fill="#FFD84D"/>
<path d="M15.8902 8.77783H15.8867C11.9658 8.77783 8.77734 11.9672 8.77734 15.8889C8.77734 17.4445 9.27868 18.8863 10.1311 20.0569L9.2449 22.6987L11.9782 21.8249C13.1027 22.5698 14.444 23.0001 15.8902 23.0001C19.8111 23.0001 22.9996 19.8098 22.9996 15.8889C22.9996 11.9681 19.8111 8.77783 15.8902 8.77783ZM20.028 18.8196C19.8565 19.3041 19.1756 19.7058 18.6325 19.8232C18.2609 19.9023 17.7756 19.9654 16.1418 19.2881C14.052 18.4223 12.7062 16.2987 12.6013 16.1609C12.5009 16.0232 11.7569 15.0365 11.7569 14.0161C11.7569 12.9956 12.2751 12.4987 12.484 12.2854C12.6556 12.1103 12.9391 12.0303 13.2111 12.0303C13.2991 12.0303 13.3782 12.0347 13.4493 12.0383C13.6582 12.0472 13.7631 12.0596 13.9009 12.3894C14.0725 12.8027 14.4902 13.8232 14.54 13.9281C14.5907 14.0329 14.6413 14.1752 14.5702 14.3129C14.5036 14.4552 14.4449 14.5183 14.34 14.6392C14.2351 14.7601 14.1356 14.8525 14.0307 14.9823C13.9347 15.0952 13.8262 15.2161 13.9471 15.4249C14.068 15.6294 14.4858 16.3112 15.1009 16.8587C15.8947 17.5654 16.5382 17.7912 16.7685 17.8872C16.94 17.9583 17.1445 17.9414 17.2698 17.8081C17.4289 17.6365 17.6253 17.3521 17.8253 17.0721C17.9676 16.8712 18.1471 16.8463 18.3356 16.9174C18.5276 16.9841 19.5436 17.4863 19.7525 17.5903C19.9613 17.6952 20.0991 17.7449 20.1498 17.8329C20.1996 17.9209 20.1996 18.3343 20.028 18.8196Z" fill="black"/>
</svg>
