<svg width="34" height="33" viewBox="0 0 34 33" fill="none" xmlns="http://www.w3.org/2000/svg">
<rect x="0.44043" width="32.839" height="32.839" rx="10" fill="#FFD84D"/>
<path d="M24.5144 12.0408C24.3201 11.3187 23.7509 10.7496 23.029 10.5552C21.7102 10.1943 16.4348 10.1943 16.4348 10.1943C16.4348 10.1943 11.1596 10.1943 9.84073 10.5415C9.13271 10.7357 8.54957 11.3189 8.35537 12.0408C8.0083 13.3595 8.0083 16.0943 8.0083 16.0943C8.0083 16.0943 8.0083 18.843 8.35537 20.1479C8.54978 20.8698 9.11883 21.439 9.84083 21.6334C11.1734 21.9943 16.435 21.9943 16.435 21.9943C16.435 21.9943 21.7102 21.9943 23.029 21.6472C23.751 21.4529 24.3201 20.8837 24.5146 20.1618C24.8615 18.843 24.8615 16.1082 24.8615 16.1082C24.8615 16.1082 24.8754 13.3595 24.5144 12.0408ZM14.7552 18.6209V13.5678L19.1419 16.0943L14.7552 18.6209Z" fill="#040932"/>
</svg>
