<svg width="160" height="61" viewBox="0 0 160 61" fill="none" xmlns="http://www.w3.org/2000/svg">
	<path d="M85.4592 42.0955H81.1531V54.9881H77.2925V42.0955H72.9863V38.5389H85.3108V42.0955H85.4592Z" fill="#131319"/>
	<path d="M92.5869 42.9846V46.9858C91.102 46.6894 89.0232 47.2822 89.0232 49.6532V54.9881H85.4595V43.1328H89.0232V45.2075C89.6171 43.7256 91.102 42.9846 92.5869 42.9846Z"
		  fill="#131319"/>
	<path d="M106.099 43.281V55.1363H102.535V53.9508C101.793 54.8399 100.605 55.4327 98.9716 55.4327C95.8534 55.4327 93.3291 52.7652 93.3291 49.2087C93.3291 45.6521 95.8534 42.9846 98.9716 42.9846C100.605 42.9846 101.793 43.5774 102.535 44.4665V43.281H106.099ZM102.535 49.2087C102.535 47.4304 101.347 46.2448 99.714 46.2448C98.0807 46.2448 96.8928 47.4304 96.8928 49.2087C96.8928 50.9869 98.0807 52.1725 99.714 52.1725C101.347 52.1725 102.535 50.9869 102.535 49.2087Z"
		  fill="#131319"/>
	<path d="M108.178 49.2087C108.178 45.6521 110.851 42.9846 114.415 42.9846C116.79 42.9846 118.721 44.1701 119.76 46.0966L116.642 47.8749C116.197 46.9858 115.454 46.5412 114.266 46.5412C112.781 46.5412 111.593 47.7267 111.593 49.3568C111.593 50.9869 112.781 52.1725 114.266 52.1725C115.306 52.1725 116.197 51.7279 116.642 50.8388L119.76 52.6171C118.721 54.3954 116.642 55.7291 114.415 55.7291C110.851 55.4327 108.178 52.7652 108.178 49.2087Z"
		  fill="#131319"/>
	<path d="M128.669 55.1363L124.808 49.9496V55.1363H121.245V38.5389H124.808V48.4677L128.372 43.281H132.53L128.224 49.2086L132.678 55.1363H128.669Z"
		  fill="#131319"/>
	<path d="M139.361 52.3207C140.401 52.3207 141.143 51.8761 141.588 51.4315L144.41 53.0616C143.222 54.6917 141.44 55.5809 139.213 55.5809C135.203 55.5809 132.679 52.9134 132.679 49.3568C132.679 45.8003 135.203 43.1328 139.064 43.1328C142.479 43.1328 145.152 45.8003 145.152 49.3568C145.152 49.8014 145.152 50.3942 145.004 50.8388H136.54C136.985 51.8761 138.025 52.3207 139.361 52.3207ZM141.588 48.0231C141.143 46.6894 140.104 46.0966 139.064 46.0966C137.728 46.0966 136.837 46.6894 136.54 48.0231H141.588Z"
		  fill="#131319"/>
	<path d="M154.506 42.9846V46.9858C153.021 46.6894 150.943 47.2822 150.943 49.6532V54.9881H147.379V43.1328H150.943V45.2075C151.388 43.7256 152.873 42.9846 154.506 42.9846Z"
		  fill="#131319"/>
	<path d="M72.9863 17.4169H77.144L80.8561 29.7168L84.5683 17.4169H88.726L83.2319 34.0144H78.3319L72.9863 17.4169Z"
		  fill="#040A3D"/>
	<path d="M100.754 22.1591V34.0144H97.1901V32.8288C96.4477 33.718 95.2598 34.3108 93.6264 34.3108C90.5082 34.3108 87.9839 31.6433 87.9839 28.0867C87.9839 24.5301 90.5082 21.8627 93.6264 21.8627C95.2598 21.8627 96.4477 22.4555 97.1901 23.3446V22.1591H100.754ZM97.1901 28.0867C97.1901 26.3084 96.0022 25.1229 94.3688 25.1229C92.7355 25.1229 91.5476 26.3084 91.5476 28.0867C91.5476 29.865 92.7355 31.0505 94.3688 31.0505C96.0022 31.0505 97.1901 29.865 97.1901 28.0867Z"
		  fill="#040A3D"/>
	<path d="M102.833 28.0867C102.833 24.5301 105.505 21.8627 109.069 21.8627C111.445 21.8627 113.375 23.0482 114.415 24.9747L111.296 26.6048C110.851 25.7157 110.108 25.2711 108.92 25.2711C107.436 25.2711 106.248 26.4566 106.248 28.0867C106.248 29.7168 107.436 30.9024 108.92 30.9024C109.96 30.9024 110.851 30.4578 111.296 29.5686L114.415 31.3469C113.375 33.1252 111.296 34.459 109.069 34.459C105.505 34.3108 102.833 31.6433 102.833 28.0867Z"
		  fill="#040A3D"/>
	<path d="M115.008 28.0867C115.008 24.5301 117.681 21.8627 121.245 21.8627C123.621 21.8627 125.551 23.0482 126.59 24.9747L123.472 26.753C123.027 25.8639 122.284 25.4193 121.096 25.4193C119.611 25.4193 118.424 26.6048 118.424 28.2349C118.424 29.865 119.611 31.0505 121.096 31.0505C122.136 31.0505 123.027 30.606 123.472 29.7168L126.59 31.4951C125.551 33.2734 123.472 34.6071 121.245 34.6071C117.83 34.3108 115.008 31.6433 115.008 28.0867Z"
		  fill="#040A3D"/>
	<path d="M127.779 18.8989C127.779 17.7133 128.818 16.8242 129.858 16.8242C130.897 16.8242 131.936 17.8615 131.936 18.8989C131.936 20.0844 130.897 20.9735 129.858 20.9735C128.818 20.9735 127.779 20.0844 127.779 18.8989ZM128.224 22.1591H131.788V34.0144H128.224V22.1591Z"
		  fill="#040A3D"/>
	<path d="M145.746 26.753V34.0144H142.182V27.1976C142.182 25.7157 141.291 24.9747 140.104 24.9747C138.767 24.9747 137.876 25.7157 137.876 27.494V34.0144H134.312V22.1591H137.876V23.3446C138.47 22.4555 139.658 21.8627 141.291 21.8627C143.667 21.8627 145.746 23.4928 145.746 26.753Z"
		  fill="#040A3D"/>
	<path d="M154.209 31.1987C155.249 31.1987 155.991 30.7542 156.437 30.3096L159.258 31.9397C158.07 33.5698 156.288 34.4589 154.061 34.4589C150.052 34.4589 147.527 31.7915 147.527 28.2349C147.527 24.6783 150.052 22.0109 153.912 22.0109C157.328 22.0109 160 24.6783 160 28.2349C160 28.6795 160 29.2722 159.852 29.7168H151.388C151.833 30.7542 153.021 31.1987 154.209 31.1987ZM156.437 26.9012C155.991 25.5675 154.952 24.9747 153.912 24.9747C152.576 24.9747 151.685 25.5675 151.388 26.9012H156.437Z"
		  fill="#040A3D"/>
	<path d="M78.6288 6.00621H76.1046V13.4158H75.5106V6.00621H72.9863V5.41344H78.6288V6.00621Z" fill="#040A3D"/>
	<path d="M84.5685 9.85919V13.4158H83.9746V9.85919C83.9746 8.82185 83.3806 8.08089 82.3412 8.08089C81.3018 8.08089 80.4108 8.82185 80.4108 10.3038V13.2676H79.8169V5.41344H80.4108V8.82185C80.8563 7.9327 81.5987 7.63631 82.4897 7.63631C83.6776 7.48812 84.5685 8.37727 84.5685 9.85919Z"
		  fill="#040A3D"/>
	<path d="M91.5474 10.6001C91.5474 10.7483 91.5474 10.7483 91.5474 10.8965H86.3503C86.4988 12.2302 87.3898 12.9712 88.7261 12.9712C89.6171 12.9712 90.3595 12.5266 90.6565 11.9339L91.1019 12.2302C90.6565 12.9712 89.7655 13.564 88.5777 13.564C86.7958 13.564 85.6079 12.3784 85.6079 10.6001C85.6079 8.97004 86.7958 7.63631 88.5777 7.63631C90.508 7.48812 91.5474 8.97004 91.5474 10.6001ZM86.3503 10.3038H90.9535C90.805 8.97004 89.914 8.08089 88.7261 8.08089C87.3898 8.08089 86.4988 8.97004 86.3503 10.3038Z"
		  fill="#040A3D"/>
	<path fill-rule="evenodd" clip-rule="evenodd"
		  d="M49.9266 60.9525H11.0258C4.93682 60.9525 0 56.0161 0 49.9265V11.0259C0 4.93631 4.93682 0 11.0258 0H49.9266C56.0156 0 60.9524 4.93631 60.9524 11.0259V49.9265C60.9524 56.0161 56.0156 60.9525 49.9266 60.9525"
		  fill="#040A3D"/>
	<path d="M49.3291 27.0221C49.1229 25.7876 48.8137 24.6559 48.2983 23.4214C48.0921 23.0099 47.6798 22.907 47.3705 23.2157L46.1336 24.4502C45.9274 24.6559 45.9274 24.8617 46.0305 25.0674C46.649 26.7135 46.9582 28.4624 46.9582 30.3141C46.9582 39.2643 39.7425 46.5685 30.7744 46.6714H30.6713C27.8882 46.6714 25.208 45.9513 22.8372 44.6139C22.631 44.511 22.3218 44.511 22.1156 44.7168L20.8786 46.0541C20.5694 46.3628 20.6725 46.7743 20.9817 46.98C22.9402 48.1117 25.208 48.9347 27.5789 49.3462C27.7851 49.3462 27.8881 49.449 27.9912 49.6548L30.3621 54.3871C30.5683 54.7986 31.1868 54.7986 31.3929 54.3871L33.6607 49.5519C33.7638 49.3462 33.8669 49.2433 34.073 49.2433C41.9072 47.803 48.0921 41.5276 49.3291 33.709C49.3291 33.5033 49.4322 33.4004 49.6383 33.2975L54.4831 30.9314C54.8955 30.7256 54.8955 30.1084 54.4831 29.9026L49.6383 27.5365C49.5352 27.4336 49.3291 27.2278 49.3291 27.0221Z"
		  fill="white"/>
	<path d="M30.4647 14.2655C32.4233 14.2655 34.2787 14.5741 36.0311 15.1914C36.2373 15.2942 36.4435 15.1913 36.6496 15.0885L37.8866 13.854C38.1958 13.5453 38.0928 13.031 37.6804 12.9281C36.4435 12.4137 35.0003 12.0022 33.6603 11.7964C33.4541 11.7964 33.351 11.6936 33.2479 11.4878L30.8771 6.75552C30.6709 6.34402 30.0524 6.34402 29.8462 6.75552L27.6815 11.4878C27.5785 11.6936 27.4754 11.7964 27.2692 11.7964C19.3319 13.2367 13.1471 19.5121 11.807 27.4336C11.807 27.6393 11.7039 27.7422 11.4978 27.8451L6.75602 30.1084C6.3437 30.3141 6.3437 30.9314 6.75602 31.1371L11.4978 33.4004C11.7039 33.5033 11.807 33.6061 11.807 33.8119C12.2193 36.178 13.044 38.3384 14.281 40.2931C14.4871 40.6017 14.8994 40.7046 15.2087 40.396L16.4457 39.1614C16.6518 38.9557 16.6518 38.6471 16.5488 38.4413C15.2087 36.0752 14.4871 33.4004 14.4871 30.5199C14.281 21.6725 21.4967 14.3683 30.4647 14.2655Z"
		  fill="white"/>
	<path d="M19.9894 39.9921L13.0649 46.9028L14.4498 48.2849L21.3743 41.3742L19.9894 39.9921Z" fill="#7BCCED"/>
	<path opacity="0.5" d="M33.2404 26.7814L20.9951 39.0023L22.38 40.3844L34.6253 28.1635L33.2404 26.7814Z"
		  fill="#7BCCED"/>
	<path d="M16.0329 51.6094L9.74495 45.334C9.53879 45.1283 9.53879 44.7168 9.74495 44.4081L9.84804 44.3052C10.0542 44.0995 10.4665 44.0995 10.7758 44.3052L17.0637 50.5807C17.2699 50.7864 17.2699 51.1979 17.0637 51.5066L16.9606 51.6094C16.6514 51.9181 16.2391 51.9181 16.0329 51.6094Z"
		  fill="#7BCCED"/>
	<path opacity="0.5"
		  d="M46.0304 17.6604L43.7626 15.3971C42.8349 14.4712 41.2886 14.4712 40.3609 15.3971L18.8169 36.7953L24.4864 42.4535L28.5065 38.4413L27.1665 37.1039C27.0634 37.0011 27.0634 36.8982 27.1665 36.7953C27.2696 36.6924 27.3726 36.6924 27.4757 36.7953L28.8158 38.1327L32.3206 34.6349L30.9805 33.2975C30.8774 33.1946 30.8774 33.0918 30.9805 32.9889C31.0836 32.886 31.1867 32.886 31.2897 32.9889L32.6298 34.3263L36.1346 30.8285L34.7945 29.4911C34.6914 29.3882 34.6914 29.2854 34.7945 29.1825C34.8976 29.0796 35.0007 29.0796 35.1038 29.1825L36.4438 30.5199L39.9486 27.0221L38.6085 25.6847C38.5054 25.5818 38.5054 25.4789 38.6085 25.3761C38.7116 25.2732 38.8147 25.2732 38.9178 25.3761L40.2578 26.7135L43.7626 23.2157L42.5256 21.9812C42.4225 21.8783 42.4225 21.7754 42.5256 21.6725C42.6287 21.5697 42.7318 21.5697 42.8349 21.6725L44.1749 23.0099L46.0304 21.1582C46.9581 20.1294 46.9581 18.5863 46.0304 17.6604Z"
		  fill="#7BCCED"/>
	<path d="M52.1114 8.81304L44.5865 16.323L43.6588 15.3971C42.731 14.4712 41.1848 14.4712 40.2571 15.3971L25.8257 29.7997L31.4952 35.4579L32.3198 34.6349L30.9798 33.2975C30.8767 33.1946 30.8767 33.0918 30.9798 32.9889C31.0828 32.886 31.1859 32.886 31.289 32.9889L32.6291 34.3263L36.1338 30.8285L34.7938 29.4911C34.6907 29.3882 34.6907 29.2854 34.7938 29.1825C34.8968 29.0796 34.9999 29.0796 35.103 29.1825L36.4431 30.5199L39.9478 27.0221L38.6078 25.6847C38.5047 25.5818 38.5047 25.4789 38.6078 25.3761C38.7109 25.2732 38.8139 25.2732 38.917 25.3761L40.2571 26.7135L43.7618 23.2157L42.5249 21.9812C42.4218 21.8783 42.4218 21.7754 42.5249 21.6725C42.6279 21.5697 42.731 21.5697 42.8341 21.6725L44.1742 23.0099L46.0296 21.1582C46.9574 20.2323 46.9574 18.6891 46.0296 17.7632L45.1019 16.7345L51.8022 10.0475L52.1114 8.81304Z"
		  fill="#7BCCED"/>
	<path d="M24.795 42.9679L18.404 36.5895C18.3009 36.4867 18.3009 36.2809 18.404 36.0752C18.5071 35.9723 18.7132 35.9723 18.9194 36.0752L25.3104 42.4535C25.4135 42.5564 25.4135 42.7621 25.3104 42.9679C25.1043 43.0707 24.8981 43.0707 24.795 42.9679Z"
		  fill="#7BCCED"/>
</svg>
