<svg width="138" height="47" xmlns="http://www.w3.org/2000/svg">

 <g>
  <title>background</title>
  <rect fill="none" id="canvas_background" height="49" width="140" y="-1" x="-1"/>
 </g>
 <g>
  <title>Layer 1</title>
  <path id="svg_1" fill="#756EA4" d="m38.122002,46.540501l-29.703112,0c-4.64933,0 -8.41889,-3.769199 -8.41889,-8.4189l0,-29.702711c0,-4.64975 3.76956,-8.41889 8.41889,-8.41889l29.703112,0c4.649399,0 8.4189,3.76914 8.4189,8.41889l0,29.702711c0,4.6497 -3.769501,8.4189 -8.4189,8.4189" clip-rule="evenodd" fill-rule="evenodd"/>
  <path id="svg_2" fill="#F5CED9" d="m14.0053,44.469501l1.728001,2.070999l1.7275,-2.070999c1.5116,-1.809303 5.0257,-6.339901 5.0257,-9.321003c0,-3.724098 -3.0292,-6.753698 -6.7532,-6.753698c-3.7241,0 -6.75369,3.0296 -6.75369,6.753698c0,2.981102 3.51409,7.5117 5.025689,9.321003" clip-rule="evenodd" fill-rule="evenodd"/>
  <path id="svg_3" fill="#EEB2C7" d="m8.97961,35.148499c0,2.981102 3.51409,7.5117 5.025689,9.321003l1.728001,2.070999l0,-18.1457c-3.7241,0 -6.75369,3.0296 -6.75369,6.753698" clip-rule="evenodd" fill-rule="evenodd"/>
  <path id="svg_4" fill="#756EA4" d="m18.872601,34.429501c0,1.733898 -1.4055,3.139801 -3.1394,3.139801c-1.7343,0 -3.1398,-1.405903 -3.1398,-3.139801c0,-1.733902 1.4055,-3.1394 3.1398,-3.1394c1.7339,0 3.1394,1.405499 3.1394,3.1394" clip-rule="evenodd" fill-rule="evenodd"/>
  <path id="svg_5" fill="#F4F6F9" d="m29.1063,46.540501l0.7047,0l0.420898,-7.954201l-1.125599,-1.0005l-1.125601,1.0005l0.421,7.954201l0.704601,0" clip-rule="evenodd" fill-rule="evenodd"/>
  <path id="svg_6" fill="#CCD7E3" d="m28.401699,46.540501l0.704601,0l0,-8.9547l-1.125601,1.0005l0.421,7.954201" clip-rule="evenodd" fill-rule="evenodd"/>
  <path id="svg_7" fill="#F5CED9" d="m26.7936,36.146099c0.743401,0.495899 1.187099,1.5466 1.187099,2.440201l2.2512,0c0,-0.8936 0.444101,-1.944302 1.187101,-2.440201c1.371,-0.9147 2.189699,-2.4436 2.189699,-4.091198l0,-16.055202l-9.004799,0l0,16.055202c0,1.647598 0.819099,3.176498 2.189699,4.091198" clip-rule="evenodd" fill-rule="evenodd"/>
  <path id="svg_8" fill="#EEB2C7" d="m24.603901,32.054901c0,1.647598 0.819099,3.176498 2.189699,4.091198c0.743401,0.495899 1.187099,1.5466 1.187099,2.440201l1.125601,0l0,-22.5866l-4.502399,0l0,16.055202" clip-rule="evenodd" fill-rule="evenodd"/>
  <path id="svg_9" fill="#F4F6F9" d="m29.1063,15.9997l1.125599,0l0,-6.75361l-2.2512,0l0,6.75361l1.125601,0" clip-rule="evenodd" fill-rule="evenodd"/>
  <path id="svg_10" fill="#CCD7E3" d="m27.9807,15.9997l1.125601,0l0,-6.75361l-1.125601,0l0,6.75361z" clip-rule="evenodd" fill-rule="evenodd"/>
  <path id="svg_11" fill="#F4F6F9" d="m33.6087,9.24603l0,0c0,-0.621739 -0.503799,-1.125609 -1.125599,-1.125609l-6.753201,0c-0.622101,0 -1.125999,0.50387 -1.125999,1.125609c0,0.62173 0.503899,1.12557 1.125999,1.12557l6.753201,0c0.621799,0 1.125599,-0.50384 1.125599,-1.12557" clip-rule="evenodd" fill-rule="evenodd"/>
  <path id="svg_12" fill="#F4F6F9" d="m29.106199,17.124901l5.628099,0c0.6217,0 1.125603,-0.503901 1.125603,-1.125201c0,-0.621699 -0.503902,-1.1256 -1.125603,-1.1256l-11.256098,0c-0.621302,0 -1.1252,0.503901 -1.1252,1.1256c0,0.621301 0.503899,1.125201 1.1252,1.125201l5.627998,0" clip-rule="evenodd" fill-rule="evenodd"/>
  <path id="svg_13" fill="#CCD7E3" d="m29.1063,10.3716l-3.3764,0c-0.622101,0 -1.125999,-0.50384 -1.125999,-1.12557c0,-0.621739 0.503899,-1.125609 1.125999,-1.125609l3.3764,0l0,2.25118" clip-rule="evenodd" fill-rule="evenodd"/>
  <path id="svg_14" fill="#CCD7E3" d="m29.106199,17.124901l-5.627998,0c-0.621302,0 -1.1252,-0.503901 -1.1252,-1.125201c0,-0.621699 0.503899,-1.1256 1.1252,-1.1256l5.627998,0l0,2.250801" clip-rule="evenodd" fill-rule="evenodd"/>
  <path id="svg_15" fill="#000000" d="m59.792999,2.34174l0,0.82336l-1.937199,0l0,5.72696l-0.860802,0l0,-5.72696l-1.927498,0l0,-0.82336l4.725498,0" clip-rule="evenodd" fill-rule="evenodd"/>
  <path id="svg_16" fill="#000000" d="m65.641296,2.34174l0.860802,0l0,6.55032l-0.860802,0l0,-2.94746l-3.181496,0l0,2.94746l-0.870102,0l0,-6.55032l0.870102,0l0,2.77949l3.181496,0l0,-2.77949" clip-rule="evenodd" fill-rule="evenodd"/>
  <path id="svg_17" fill="#000000" d="m69.711403,8.06869l3.041298,0l0,0.82337l-3.9114,0l0,-6.55032l3.864296,0l0,0.82336l-2.994194,0l0,2.01212l2.760597,0l0,0.81411l-2.760597,0l0,2.07736" clip-rule="evenodd" fill-rule="evenodd"/>
  <path id="svg_18" fill="#000000" d="m59.980801,26.507299l-5.0298,-14.982699l3.210499,0l3.664303,11.518701l3.634899,-11.518701l3.232399,0l-5.051701,14.982699l-3.660599,0" clip-rule="evenodd" fill-rule="evenodd"/>
  <path id="svg_19" fill="#000000" d="m72.609596,23.329201c0.556503,0.5637 1.262405,0.845299 2.119003,0.845299c0.856201,0 1.565903,-0.281599 2.129601,-0.845299c0.563599,-0.563601 0.8452,-1.287601 0.8452,-2.172501c0,-0.8848 -0.281601,-1.608801 -0.8452,-2.172899c-0.563698,-0.5632 -1.273399,-0.845201 -2.129601,-0.845201c-0.856598,0 -1.5625,0.282001 -2.119003,0.845201c-0.556496,0.564098 -0.834694,1.288099 -0.834694,2.172899c0,0.884899 0.278198,1.6089 0.834694,2.172501zm5.093903,-7.524001l2.761398,0l0,10.7021l-2.761398,0l0,-1.2628c-0.827499,1.041801 -1.990601,1.5625 -3.4888,1.5625c-1.426498,0 -2.650597,-0.545898 -3.670601,-1.636999c-1.020401,-1.092001 -1.530602,-2.429701 -1.530602,-4.0133c0,-1.584499 0.510201,-2.922199 1.530602,-4.0137c1.020004,-1.091099 2.244102,-1.6375 3.670601,-1.6375c1.498199,0 2.661301,0.5211 3.4888,1.563001l0,-1.263301l0,0z" clip-rule="evenodd" fill-rule="evenodd"/>
  <path id="svg_20" fill="#000000" d="m88.919502,26.806999c-1.612602,0 -2.957603,-0.541698 -4.034302,-1.626499c-1.078102,-1.0844 -1.616501,-2.4259 -1.616501,-4.0238c0,-1.5984 0.538399,-2.939899 1.616501,-4.0243c1.076698,-1.084301 2.4217,-1.626901 4.034302,-1.626901c1.041397,0 1.990601,0.2496 2.846794,0.749301c0.8563,0.499199 1.505806,1.1698 1.947807,2.012098l-2.3759,1.391201c-0.213806,-0.441999 -0.538803,-0.7918 -0.973602,-1.049c-0.435303,-0.2568 -0.924004,-0.384701 -1.466103,-0.384701c-0.827995,0 -1.512901,0.274401 -2.055099,0.823801c-0.542603,0.549299 -0.813301,1.2519 -0.813301,2.1085c0,0.8419 0.270699,1.5373 0.813301,2.087c0.542198,0.548901 1.227104,0.823799 2.055099,0.823799c0.556404,0 1.051903,-0.124599 1.487198,-0.374599c0.435204,-0.249701 0.760201,-0.595699 0.974007,-1.038099l2.397301,1.369799c-0.470604,0.841902 -1.134407,1.516602 -1.990707,2.023001c-0.856194,0.506001 -1.805397,0.759399 -2.846794,0.759399" clip-rule="evenodd" fill-rule="evenodd"/>
  <path id="svg_21" fill="#000000" d="m100.991997,26.806999c-1.613197,0 -2.957695,-0.541698 -4.034897,-1.626499c-1.077599,-1.0844 -1.615997,-2.4259 -1.615997,-4.0238c0,-1.5984 0.538399,-2.939899 1.615997,-4.0243c1.077202,-1.084301 2.4217,-1.626901 4.034897,-1.626901c1.041,0 1.991005,0.2496 2.846001,0.749301c0.857002,0.499199 1.506004,1.1698 1.948006,2.012098l-2.375,1.391201c-0.215004,-0.441999 -0.539001,-0.7918 -0.974007,-1.049c-0.435997,-0.2568 -0.923996,-0.384701 -1.466995,-0.384701c-0.828003,0 -1.512505,0.274401 -2.054703,0.823801c-0.542099,0.549299 -0.813202,1.2519 -0.813202,2.1085c0,0.8419 0.271103,1.5373 0.813202,2.087c0.542198,0.548901 1.2267,0.823799 2.054703,0.823799c0.556999,0 1.052002,-0.124599 1.487999,-0.374599c0.434998,-0.249701 0.760002,-0.595699 0.973999,-1.038099l2.397003,1.369799c-0.470001,0.841902 -1.134003,1.516602 -1.991005,2.023001c-0.854996,0.506001 -1.805,0.759399 -2.846001,0.759399" clip-rule="evenodd" fill-rule="evenodd"/>
  <path id="svg_22" fill="#000000" d="m108.140999,26.5075l2.761002,0l0,-10.7021l-2.761002,0l0,10.7021zm1.370003,-11.9865c-0.457001,0 -0.853004,-0.1676 -1.188004,-0.503099c-0.334999,-0.3346 -0.502998,-0.7312 -0.502998,-1.1883c0,-0.4559 0.167999,-0.855801 0.502998,-1.198c0.334999,-0.3427 0.731003,-0.5136 1.188004,-0.5136c0.471001,0 0.874001,0.1709 1.209,0.5136c0.334999,0.342199 0.502998,0.7421 0.502998,1.198c0,0.4571 -0.167999,0.8537 -0.502998,1.1883c-0.334999,0.3355 -0.737999,0.503099 -1.209,0.503099l0,0z" clip-rule="evenodd" fill-rule="evenodd"/>
  <path id="svg_23" fill="#000000" d="m120.235001,15.5055c1.168999,0 2.136002,0.3927 2.900002,1.1774c0.763,0.785 1.144997,1.8694 1.144997,3.253l0,6.5714l-2.761002,0l0,-6.2283c0,-0.713499 -0.193001,-1.259499 -0.578995,-1.637499c-0.384003,-0.378401 -0.898003,-0.5674 -1.541,-0.5674c-0.713005,0 -1.284004,0.2218 -1.712006,0.663399c-0.427994,0.4424 -0.641998,1.106201 -0.641998,1.990702l0,5.779099l-2.761002,0l0,-10.7021l2.761002,0l0,1.1984c0.671005,-0.9984 1.734001,-1.498099 3.190002,-1.498099" clip-rule="evenodd" fill-rule="evenodd"/>
  <path id="svg_24" fill="#000000" d="m129.781006,20.1507l5.457993,0c-0.156998,-0.728199 -0.481003,-1.27 -0.973999,-1.626999c-0.492004,-0.356501 -1.052002,-0.535 -1.679993,-0.535c-0.742004,0 -1.356003,0.188999 -1.841003,0.566999c-0.486008,0.3785 -0.806,0.910099 -0.962997,1.594999zm0.042999,2.140001c0.369995,1.341599 1.376999,2.012098 3.01799,2.012098c1.055008,0 1.854004,-0.356899 2.397003,-1.070398l2.225998,1.2843c-1.056,1.527599 -2.612,2.290298 -4.666,2.290298c-1.769989,0 -3.190002,-0.535 -4.259995,-1.605c-1.07,-1.070099 -1.605003,-2.4188 -1.605003,-4.0453c0,-1.6131 0.528,-2.9576 1.584007,-4.0352c1.054993,-1.0772 2.410995,-1.616 4.067001,-1.616c1.569,0 2.863998,0.5426 3.883987,1.626901c1.021011,1.0844 1.531006,2.4259 1.531006,4.0243c0,0.356501 -0.035995,0.7349 -0.106995,1.134001l-8.069,0l0,0z" clip-rule="evenodd" fill-rule="evenodd"/>
  <path id="svg_25" fill="#000000" d="m66.1884,28.915501l0,2.8253l-4.0457,0l0,12.157801l-2.9538,0l0,-12.157801l-4.0238,0l0,-2.8253l11.0233,0" clip-rule="evenodd" fill-rule="evenodd"/>
  <path id="svg_26" fill="#000000" d="m69.977097,35.037399c0.256805,-0.685299 0.681107,-1.198898 1.273407,-1.5411c0.592194,-0.342701 1.252296,-0.514 1.980095,-0.514l0,3.0826c-0.841896,-0.0998 -1.594597,0.071102 -2.257996,0.5135c-0.663803,0.442402 -0.995506,1.177002 -0.995506,2.204899l0,5.115402l-2.760994,0l0,-10.702099l2.760994,0l0,1.840797" clip-rule="evenodd" fill-rule="evenodd"/>
  <path id="svg_27" fill="#000000" d="m78.324799,40.719898c0.556503,0.563602 1.262802,0.845703 2.119003,0.845703c0.856201,0 1.565895,-0.282101 2.129997,-0.845703c0.563202,-0.563698 0.845299,-1.287697 0.845299,-2.172497c0,-0.8848 -0.282097,-1.608402 -0.845299,-2.172501c-0.564102,-0.563702 -1.273796,-0.845699 -2.129997,-0.845699c-0.856201,0 -1.5625,0.281998 -2.119003,0.845699c-0.556496,0.564098 -0.834702,1.287701 -0.834702,2.172501c0,0.8848 0.278206,1.608799 0.834702,2.172497zm5.0942,-7.523399l2.761002,0l0,10.702103l-2.761002,0l0,-1.262802c-0.827599,1.041401 -1.9907,1.562901 -3.4888,1.562901c-1.427002,0 -2.6511,-0.546398 -3.670601,-1.637901c-1.020798,-1.091499 -1.530998,-2.429199 -1.530998,-4.013298c0,-1.584 0.510201,-2.9217 1.530998,-4.013199c1.019501,-1.091602 2.243599,-1.637901 3.670601,-1.637901c1.4981,0 2.661201,0.521099 3.4888,1.562901l0,-1.262802l0,0z" clip-rule="evenodd" fill-rule="evenodd"/>
  <path id="svg_28" fill="#000000" d="m94.634697,44.1987c-1.612999,0 -2.957497,-0.542099 -4.034698,-1.6269c-1.077599,-1.084801 -1.615997,-2.4259 -1.615997,-4.0243c0,-1.598301 0.538399,-2.9394 1.615997,-4.0242c1.077202,-1.084301 2.4217,-1.6269 4.034698,-1.6269c1.041504,0 1.9907,0.25 2.846901,0.749199c0.856201,0.500099 1.505302,1.1707 1.947701,2.0126l-2.375801,1.3908c-0.214294,-0.441601 -0.538795,-0.791401 -0.973694,-1.048599c-0.4356,-0.256802 -0.9244,-0.385201 -1.466507,-0.385201c-0.827995,0 -1.512894,0.274502 -2.055099,0.823799c-0.542198,0.549801 -0.812798,1.2528 -0.812798,2.108501c0,0.8419 0.270599,1.5378 0.812798,2.087101c0.542206,0.549297 1.227104,0.823799 2.055099,0.823799c0.556503,0 1.052307,-0.124599 1.487602,-0.374702c0.435204,-0.249199 0.760201,-0.5956 0.973602,-1.037598l2.397697,1.369301c-0.471001,0.8424 -1.134399,1.516697 -1.990601,2.023098c-0.856201,0.506001 -1.805397,0.760201 -2.846901,0.760201" clip-rule="evenodd" fill-rule="evenodd"/>
  <path id="svg_29" fill="#000000" d="m111.651001,43.898602l-3.210999,0l-3.895004,-4.8624l0,4.8624l-2.761002,0l0,-14.983101l2.761002,0l0,9.008198l3.681,-4.7272l3.297005,0l-4.302002,5.287003l4.43,5.4151" clip-rule="evenodd" fill-rule="evenodd"/>
  <path id="svg_30" fill="#000000" d="m115.397003,37.541302l5.458,0c-0.157005,-0.727402 -0.482002,-1.269501 -0.974007,-1.626904c-0.491997,-0.356598 -1.051994,-0.534599 -1.68,-0.534599c-0.741997,0 -1.355995,0.189003 -1.840996,0.566601c-0.485001,0.378799 -0.806,0.910099 -0.962997,1.594902zm0.042999,2.140297c0.370995,1.3419 1.376999,2.012501 3.017998,2.012501c1.055,0 1.855003,-0.356499 2.397003,-1.07l2.225998,1.283802c-1.056,1.527199 -2.611,2.290798 -4.666,2.290798c-1.770004,0 -3.189003,-0.535801 -4.259003,-1.6059c-1.070999,-1.07 -1.605995,-2.418701 -1.605995,-4.0453c0,-1.612602 0.528,-2.9571 1.584,-4.034702c1.056,-1.077599 2.410995,-1.616398 4.066994,-1.616398c1.570007,0 2.864006,0.542599 3.885002,1.6269c1.020004,1.084801 1.529999,2.4259 1.529999,4.0242c0,0.356998 -0.034996,0.735001 -0.106995,1.134098l-8.069,0l0,0z" clip-rule="evenodd" fill-rule="evenodd"/>
  <path id="svg_31" fill="#000000" d="m129.160004,35.037399c0.257004,-0.685299 0.681992,-1.198898 1.272995,-1.5411c0.593002,-0.342701 1.253006,-0.514 1.981003,-0.514l0,3.0826c-0.841995,-0.0998 -1.595001,0.071102 -2.259003,0.5135c-0.662994,0.442402 -0.994995,1.177002 -0.994995,2.204899l0,5.115402l-2.761002,0l0,-10.702099l2.761002,0l0,1.840797" clip-rule="evenodd" fill-rule="evenodd"/>
 </g>
</svg>