<svg width="138" height="47" viewBox="0 0 138 47" fill="none" xmlns="http://www.w3.org/2000/svg">
<path fill-rule="evenodd" clip-rule="evenodd" d="M38.122 46.5405H8.41889C3.76956 46.5405 0 42.7713 0 38.1216V8.41889C0 3.76914 3.76956 0 8.41889 0H38.122C42.7714 0 46.5409 3.76914 46.5409 8.41889V38.1216C46.5409 42.7713 42.7714 46.5405 38.122 46.5405" fill="#756EA4"/>
<path fill-rule="evenodd" clip-rule="evenodd" d="M14.0053 44.4695L15.7333 46.5405L17.4608 44.4695C18.9724 42.6602 22.4865 38.1296 22.4865 35.1485C22.4865 31.4244 19.4573 28.3948 15.7333 28.3948C12.0092 28.3948 8.97961 31.4244 8.97961 35.1485C8.97961 38.1296 12.4937 42.6602 14.0053 44.4695" fill="#F5CED9"/>
<path fill-rule="evenodd" clip-rule="evenodd" d="M8.97961 35.1485C8.97961 38.1296 12.4937 42.6602 14.0053 44.4695L15.7333 46.5405V28.3948C12.0092 28.3948 8.97961 31.4244 8.97961 35.1485" fill="#EEB2C7"/>
<path fill-rule="evenodd" clip-rule="evenodd" d="M18.8726 34.4295C18.8726 36.1634 17.4671 37.5693 15.7332 37.5693C13.9989 37.5693 12.5934 36.1634 12.5934 34.4295C12.5934 32.6956 13.9989 31.2901 15.7332 31.2901C17.4671 31.2901 18.8726 32.6956 18.8726 34.4295" fill="#756EA4"/>
<path fill-rule="evenodd" clip-rule="evenodd" d="M29.1063 46.5405H29.811L30.2319 38.5863L29.1063 37.5858L27.9807 38.5863L28.4017 46.5405H29.1063" fill="#F4F6F9"/>
<path fill-rule="evenodd" clip-rule="evenodd" d="M28.4017 46.5405H29.1063V37.5858L27.9807 38.5863L28.4017 46.5405" fill="#CCD7E3"/>
<path fill-rule="evenodd" clip-rule="evenodd" d="M26.7936 36.1461C27.537 36.642 27.9807 37.6927 27.9807 38.5863H30.2319C30.2319 37.6927 30.676 36.642 31.419 36.1461C32.79 35.2314 33.6087 33.7025 33.6087 32.0549V15.9997H24.6039V32.0549C24.6039 33.7025 25.423 35.2314 26.7936 36.1461" fill="#F5CED9"/>
<path fill-rule="evenodd" clip-rule="evenodd" d="M24.6039 32.0549C24.6039 33.7025 25.423 35.2314 26.7936 36.1461C27.537 36.642 27.9807 37.6927 27.9807 38.5863H29.1063V15.9997H24.6039V32.0549" fill="#EEB2C7"/>
<path fill-rule="evenodd" clip-rule="evenodd" d="M29.1063 15.9997H30.2319V9.24609H27.9807V15.9997H29.1063" fill="#F4F6F9"/>
<path fill-rule="evenodd" clip-rule="evenodd" d="M27.9807 15.9997H29.1063V9.24609H27.9807V15.9997Z" fill="#CCD7E3"/>
<path fill-rule="evenodd" clip-rule="evenodd" d="M33.6087 9.24603V9.24603C33.6087 8.62429 33.1049 8.12042 32.4831 8.12042H25.7299C25.1078 8.12042 24.6039 8.62429 24.6039 9.24603C24.6039 9.86776 25.1078 10.3716 25.7299 10.3716H32.4831C33.1049 10.3716 33.6087 9.86776 33.6087 9.24603" fill="#F4F6F9"/>
<path fill-rule="evenodd" clip-rule="evenodd" d="M29.1062 17.1249H34.7343C35.356 17.1249 35.8599 16.621 35.8599 15.9997C35.8599 15.378 35.356 14.8741 34.7343 14.8741H23.4782C22.8569 14.8741 22.353 15.378 22.353 15.9997C22.353 16.621 22.8569 17.1249 23.4782 17.1249H29.1062" fill="#F4F6F9"/>
<path fill-rule="evenodd" clip-rule="evenodd" d="M29.1063 10.3716H25.7299C25.1078 10.3716 24.6039 9.86776 24.6039 9.24603C24.6039 8.62429 25.1078 8.12042 25.7299 8.12042H29.1063V10.3716" fill="#CCD7E3"/>
<path fill-rule="evenodd" clip-rule="evenodd" d="M29.1062 17.1249H23.4782C22.8569 17.1249 22.353 16.621 22.353 15.9997C22.353 15.378 22.8569 14.8741 23.4782 14.8741H29.1062V17.1249" fill="#CCD7E3"/>
<path fill-rule="evenodd" clip-rule="evenodd" d="M59.793 2.34174V3.1651H57.8558V8.89206H56.995V3.1651H55.0675V2.34174H59.793" fill="white"/>
<path fill-rule="evenodd" clip-rule="evenodd" d="M65.6413 2.34174H66.5021V8.89206H65.6413V5.9446H62.4598V8.89206H61.5897V2.34174H62.4598V5.12123H65.6413V2.34174" fill="white"/>
<path fill-rule="evenodd" clip-rule="evenodd" d="M69.7114 8.06869H72.7527V8.89206H68.8413V2.34174H72.7056V3.1651H69.7114V5.17722H72.472V5.99133H69.7114V8.06869" fill="white"/>
<path fill-rule="evenodd" clip-rule="evenodd" d="M59.9808 26.5073L54.951 11.5246H58.1615L61.8258 23.0433L65.4607 11.5246H68.6931L63.6414 26.5073H59.9808" fill="white"/>
<path fill-rule="evenodd" clip-rule="evenodd" d="M72.6096 23.3292C73.1661 23.8929 73.872 24.1745 74.7286 24.1745C75.5848 24.1745 76.2945 23.8929 76.8582 23.3292C77.4218 22.7656 77.7034 22.0416 77.7034 21.1567C77.7034 20.2719 77.4218 19.5479 76.8582 18.9838C76.2945 18.4206 75.5848 18.1386 74.7286 18.1386C73.872 18.1386 73.1661 18.4206 72.6096 18.9838C72.0531 19.5479 71.7749 20.2719 71.7749 21.1567C71.7749 22.0416 72.0531 22.7656 72.6096 23.3292ZM77.7035 15.8052H80.4649V26.5073H77.7035V25.2445C76.876 26.2863 75.7129 26.807 74.2147 26.807C72.7882 26.807 71.5641 26.2611 70.5441 25.17C69.5237 24.078 69.0135 22.7403 69.0135 21.1567C69.0135 19.5722 69.5237 18.2345 70.5441 17.143C71.5641 16.0519 72.7882 15.5055 74.2147 15.5055C75.7129 15.5055 76.876 16.0266 77.7035 17.0685V15.8052V15.8052Z" fill="white"/>
<path fill-rule="evenodd" clip-rule="evenodd" d="M88.9195 26.807C87.3069 26.807 85.9619 26.2653 84.8852 25.1805C83.8071 24.0961 83.2687 22.7546 83.2687 21.1567C83.2687 19.5583 83.8071 18.2168 84.8852 17.1324C85.9619 16.0481 87.3069 15.5055 88.9195 15.5055C89.9609 15.5055 90.9101 15.7551 91.7663 16.2548C92.6226 16.754 93.2721 17.4246 93.7141 18.2669L91.3382 19.6581C91.1244 19.2161 90.7994 18.8663 90.3646 18.6091C89.9293 18.3523 89.4406 18.2244 88.8985 18.2244C88.0705 18.2244 87.3856 18.4988 86.8434 19.0482C86.3008 19.5975 86.0301 20.3001 86.0301 21.1567C86.0301 21.9986 86.3008 22.694 86.8434 23.2437C87.3856 23.7926 88.0705 24.0675 88.8985 24.0675C89.4549 24.0675 89.9504 23.9429 90.3857 23.6929C90.8209 23.4432 91.1459 23.0972 91.3597 22.6548L93.757 24.0246C93.2864 24.8665 92.6226 25.5412 91.7663 26.0476C90.9101 26.5536 89.9609 26.807 88.9195 26.807" fill="white"/>
<path fill-rule="evenodd" clip-rule="evenodd" d="M100.992 26.807C99.3788 26.807 98.0343 26.2653 96.9571 25.1805C95.8795 24.0961 95.3411 22.7546 95.3411 21.1567C95.3411 19.5583 95.8795 18.2168 96.9571 17.1324C98.0343 16.0481 99.3788 15.5055 100.992 15.5055C102.033 15.5055 102.983 15.7551 103.838 16.2548C104.695 16.754 105.344 17.4246 105.786 18.2669L103.411 19.6581C103.196 19.2161 102.872 18.8663 102.437 18.6091C102.001 18.3523 101.513 18.2244 100.97 18.2244C100.142 18.2244 99.4575 18.4988 98.9153 19.0482C98.3732 19.5975 98.1021 20.3001 98.1021 21.1567C98.1021 21.9986 98.3732 22.694 98.9153 23.2437C99.4575 23.7926 100.142 24.0675 100.97 24.0675C101.527 24.0675 102.022 23.9429 102.458 23.6929C102.893 23.4432 103.218 23.0972 103.432 22.6548L105.829 24.0246C105.359 24.8665 104.695 25.5412 103.838 26.0476C102.983 26.5536 102.033 26.807 100.992 26.807" fill="white"/>
<path fill-rule="evenodd" clip-rule="evenodd" d="M108.141 26.5075H110.902V15.8054H108.141V26.5075ZM109.511 14.521C109.054 14.521 108.658 14.3534 108.323 14.0179C107.988 13.6833 107.82 13.2867 107.82 12.8296C107.82 12.3737 107.988 11.9738 108.323 11.6316C108.658 11.2889 109.054 11.118 109.511 11.118C109.982 11.118 110.385 11.2889 110.72 11.6316C111.055 11.9738 111.223 12.3737 111.223 12.8296C111.223 13.2867 111.055 13.6833 110.72 14.0179C110.385 14.3534 109.982 14.521 109.511 14.521V14.521Z" fill="white"/>
<path fill-rule="evenodd" clip-rule="evenodd" d="M120.235 15.5055C121.404 15.5055 122.371 15.8982 123.135 16.6829C123.898 17.4679 124.28 18.5523 124.28 19.9359V26.5073H121.519V20.279C121.519 19.5655 121.326 19.0195 120.94 18.6415C120.556 18.2631 120.042 18.0741 119.399 18.0741C118.686 18.0741 118.115 18.2959 117.687 18.7375C117.259 19.1799 117.045 19.8437 117.045 20.7282V26.5073H114.284V15.8052H117.045V17.0036C117.716 16.0052 118.779 15.5055 120.235 15.5055" fill="white"/>
<path fill-rule="evenodd" clip-rule="evenodd" d="M129.781 20.1507H135.239C135.082 19.4225 134.758 18.8807 134.265 18.5237C133.773 18.1672 133.213 17.9887 132.585 17.9887C131.843 17.9887 131.229 18.1777 130.744 18.5557C130.258 18.9342 129.938 19.4658 129.781 20.1507ZM129.824 22.2907C130.194 23.6323 131.201 24.3028 132.842 24.3028C133.897 24.3028 134.696 23.9459 135.239 23.2324L137.465 24.5167C136.409 26.0443 134.853 26.807 132.799 26.807C131.029 26.807 129.609 26.272 128.539 25.202C127.469 24.1319 126.934 22.7832 126.934 21.1567C126.934 19.5436 127.462 18.1991 128.518 17.1215C129.573 16.0443 130.929 15.5055 132.585 15.5055C134.154 15.5055 135.449 16.0481 136.469 17.1324C137.49 18.2168 138 19.5583 138 21.1567C138 21.5132 137.964 21.8916 137.893 22.2907H129.824V22.2907Z" fill="white"/>
<path fill-rule="evenodd" clip-rule="evenodd" d="M66.1884 28.9155V31.7408H62.1427V43.8986H59.1889V31.7408H55.1651V28.9155H66.1884" fill="white"/>
<path fill-rule="evenodd" clip-rule="evenodd" d="M69.9771 35.0374C70.2339 34.3521 70.6582 33.8385 71.2505 33.4963C71.8427 33.1536 72.5028 32.9823 73.2306 32.9823V36.0649C72.3887 35.9651 71.636 36.136 70.9726 36.5784C70.3088 37.0208 69.9771 37.7554 69.9771 38.7833V43.8987H67.2161V33.1966H69.9771V35.0374" fill="white"/>
<path fill-rule="evenodd" clip-rule="evenodd" d="M78.3248 40.7199C78.8813 41.2835 79.5876 41.5656 80.4438 41.5656C81.3 41.5656 82.0097 41.2835 82.5738 40.7199C83.137 40.1562 83.4191 39.4322 83.4191 38.5474C83.4191 37.6626 83.137 36.939 82.5738 36.3749C82.0097 35.8112 81.3 35.5292 80.4438 35.5292C79.5876 35.5292 78.8813 35.8112 78.3248 36.3749C77.7683 36.939 77.4901 37.6626 77.4901 38.5474C77.4901 39.4322 77.7683 40.1562 78.3248 40.7199ZM83.419 33.1965H86.18V43.8986H83.419V42.6358C82.5914 43.6772 81.4283 44.1987 79.9302 44.1987C78.5032 44.1987 77.2791 43.6523 76.2596 42.5608C75.2388 41.4693 74.7286 40.1316 74.7286 38.5475C74.7286 36.9635 75.2388 35.6258 76.2596 34.5343C77.2791 33.4427 78.5032 32.8964 79.9302 32.8964C81.4283 32.8964 82.5914 33.4175 83.419 34.4593V33.1965V33.1965Z" fill="white"/>
<path fill-rule="evenodd" clip-rule="evenodd" d="M94.6347 44.1987C93.0217 44.1987 91.6772 43.6566 90.6 42.5718C89.5224 41.487 88.984 40.1459 88.984 38.5475C88.984 36.9492 89.5224 35.6081 90.6 34.5233C91.6772 33.439 93.0217 32.8964 94.6347 32.8964C95.6762 32.8964 96.6254 33.1464 97.4816 33.6456C98.3378 34.1457 98.9869 34.8163 99.4293 35.6582L97.0535 37.049C96.8392 36.6074 96.5147 36.2576 96.0798 36.0004C95.6442 35.7436 95.1554 35.6152 94.6133 35.6152C93.7853 35.6152 93.1004 35.8897 92.5582 36.439C92.016 36.9888 91.7454 37.6918 91.7454 38.5475C91.7454 39.3894 92.016 40.0853 92.5582 40.6346C93.1004 41.1839 93.7853 41.4584 94.6133 41.4584C95.1698 41.4584 95.6656 41.3338 96.1009 41.0837C96.5361 40.8345 96.8611 40.4881 97.0745 40.0461L99.4722 41.4154C99.0012 42.2578 98.3378 42.9321 97.4816 43.4385C96.6254 43.9445 95.6762 44.1987 94.6347 44.1987" fill="white"/>
<path fill-rule="evenodd" clip-rule="evenodd" d="M111.651 43.8986H108.44L104.545 39.0362V43.8986H101.784V28.9155H104.545V37.9237L108.226 33.1965H111.523L107.221 38.4835L111.651 43.8986" fill="white"/>
<path fill-rule="evenodd" clip-rule="evenodd" d="M115.397 37.5413H120.855C120.698 36.8139 120.373 36.2718 119.881 35.9144C119.389 35.5578 118.829 35.3798 118.201 35.3798C117.459 35.3798 116.845 35.5688 116.36 35.9464C115.875 36.3252 115.554 36.8565 115.397 37.5413ZM115.44 39.6816C115.811 41.0235 116.817 41.6941 118.458 41.6941C119.513 41.6941 120.313 41.3376 120.855 40.6241L123.081 41.9079C122.025 43.4351 120.47 44.1987 118.415 44.1987C116.645 44.1987 115.226 43.6629 114.156 42.5928C113.085 41.5228 112.55 40.1741 112.55 38.5475C112.55 36.9349 113.078 35.5904 114.134 34.5128C115.19 33.4352 116.545 32.8964 118.201 32.8964C119.771 32.8964 121.065 33.439 122.086 34.5233C123.106 35.6081 123.616 36.9492 123.616 38.5475C123.616 38.9045 123.581 39.2825 123.509 39.6816H115.44V39.6816Z" fill="white"/>
<path fill-rule="evenodd" clip-rule="evenodd" d="M129.16 35.0374C129.417 34.3521 129.842 33.8385 130.433 33.4963C131.026 33.1536 131.686 32.9823 132.414 32.9823V36.0649C131.572 35.9651 130.819 36.136 130.155 36.5784C129.492 37.0208 129.16 37.7554 129.16 38.7833V43.8987H126.399V33.1966H129.16V35.0374" fill="white"/>
</svg>
