<svg width="663" height="354" viewBox="0 0 663 354" fill="none" xmlns="http://www.w3.org/2000/svg">
<path d="M624.383 322.876C620.436 315.283 604.356 309.296 597.193 307.982C558.892 300.681 518.691 301.703 479.952 301.849C437.704 301.995 397.356 308.712 355.401 311.924C333.619 313.531 310.522 310.61 288.74 309.88C252.779 308.566 216.817 307.106 180.855 305.499C149.864 304.039 117.703 307.252 90.2197 324.336C87.1498 326.235 83.9338 328.571 82.6181 332.075C73.7007 353.979 184.51 351.204 198.982 351.642C271.783 353.541 344.583 354.563 417.384 352.519C471.473 351.058 527.901 351.204 581.551 343.465C593.392 341.713 609.618 341.129 619.852 334.266C625.407 330.177 626.137 326.381 624.383 322.876Z" fill="#FEB9D3"/>
<path d="M577.164 24.1149C578.041 24.1149 579.065 24.1149 580.088 24.1149" stroke="#77CAEC" stroke-width="0.828144" stroke-miterlimit="10"/>
<path d="M585.936 24.553C604.794 26.4513 627.891 34.4825 625.114 50.6909C620.874 76.6829 505.095 67.0454 477.466 67.3375C421.915 67.9216 365.78 68.0676 311.252 80.1874C297.949 83.1079 279.091 89.6789 280.407 106.471C280.846 112.312 284.354 117.715 288.886 121.658C304.82 135.968 326.894 137.428 347.506 139.91C378.644 143.707 526.731 138.596 575.118 154.513C584.62 157.579 596.607 161.668 596.9 175.248C597.923 209.855 511.966 208.103 486.091 208.833C417.237 210.585 348.384 209.855 279.53 208.541C223.833 207.373 168.136 206.497 112.586 202.846C91.8272 201.532 58.0583 201.094 42.2702 185.615C33.499 177 32.3295 161.084 46.2172 153.052C56.0116 147.358 84.9565 149.84 96.0666 148.964C129.689 146.043 119.456 125.746 92.2658 123.118" stroke="#77CAEC" stroke-width="0.828144" stroke-miterlimit="10" stroke-dasharray="3.32 3.32"/>
<path d="M89.4881 123.118C88.4648 123.118 87.5877 123.118 86.5644 123.118" stroke="#77CAEC" stroke-width="0.828144" stroke-miterlimit="10"/>
<path d="M572.341 48.6466C572.048 48.6466 571.902 48.6466 571.61 48.5006L534.625 35.6506C533.894 35.3586 533.309 34.7745 533.163 33.8984C533.017 33.0222 533.309 32.2921 533.894 31.708L563.57 6.15416C564.154 5.57007 565.031 5.42405 565.762 5.71609C566.493 6.00813 567.078 6.59222 567.224 7.46836L574.534 46.0182C574.68 46.8943 574.387 47.6244 573.803 48.2085C573.364 48.5006 572.925 48.6466 572.341 48.6466ZM536.525 33.1683L571.464 45.4341L564.593 9.0746L536.525 33.1683Z" fill="#FEB9D3"/>
<path d="M556.261 33.0221C555.53 32.7301 555.237 32 555.384 31.2698L559.038 18.4199C559.331 17.2517 560.646 16.5216 561.816 16.9597C562.985 17.3977 563.57 18.7119 563.131 19.8801L558.015 32.292C557.722 32.8761 556.992 33.1681 556.261 33.0221Z" fill="#FEB9D3"/>
<path d="M556.553 36.5267C556.26 37.2568 555.529 37.6949 554.798 37.4029C554.068 37.1108 553.629 36.3807 553.921 35.6506C554.214 34.9205 554.945 34.4824 555.676 34.7745C556.407 34.9205 556.845 35.7966 556.553 36.5267Z" fill="#FEB9D3"/>
<path d="M80.5712 110.706C80.425 110.852 80.2788 110.998 80.1327 110.998L57.9124 125.892C57.4738 126.184 56.8891 126.184 56.3043 126.038C55.8658 125.746 55.4272 125.308 55.4272 124.724L53.8192 98.002C53.8192 97.4179 54.1116 96.9798 54.5501 96.5417C54.9887 96.2497 55.5734 96.2497 56.1582 96.3957L80.1327 108.37C80.5712 108.662 81.0098 109.1 81.0098 109.684C80.8636 109.976 80.7174 110.414 80.5712 110.706ZM57.3276 123.702L78.3784 109.684L55.7196 98.44L57.3276 123.702Z" fill="#FEB9D3"/>
<path d="M65.3676 112.896C64.9291 113.188 64.3443 113.042 64.0519 112.604L58.4969 105.303C58.0583 104.573 58.2045 103.697 58.9354 103.259C59.6664 102.821 60.5435 102.967 60.982 103.697L65.5138 111.582C65.9524 112.166 65.8062 112.604 65.3676 112.896Z" fill="#FEB9D3"/>
<path d="M67.4143 114.211C67.7066 114.649 67.5604 115.233 67.1219 115.525C66.6833 115.817 66.0986 115.671 65.8062 115.233C65.5139 114.795 65.66 114.211 66.0986 113.919C66.5372 113.626 67.1219 113.773 67.4143 114.211Z" fill="#FEB9D3"/>
<path d="M103.961 172.766C105.333 172.766 106.446 171.654 106.446 170.283C106.446 168.912 105.333 167.801 103.961 167.801C102.588 167.801 101.476 168.912 101.476 170.283C101.476 171.654 102.588 172.766 103.961 172.766Z" stroke="#D2E8F9" stroke-width="0.828144" stroke-miterlimit="10"/>
<path d="M464.163 127.937C465.535 127.937 466.648 126.825 466.648 125.454C466.648 124.083 465.535 122.972 464.163 122.972C462.79 122.972 461.678 124.083 461.678 125.454C461.678 126.825 462.79 127.937 464.163 127.937Z" stroke="#D2E8F9" stroke-width="0.828144" stroke-miterlimit="10"/>
<path d="M273.098 60.0364C274.47 60.0364 275.583 58.925 275.583 57.554C275.583 56.1831 274.47 55.0717 273.098 55.0717C271.725 55.0717 270.613 56.1831 270.613 57.554C270.613 58.925 271.725 60.0364 273.098 60.0364Z" stroke="#D2E8F9" stroke-width="0.828144" stroke-miterlimit="10"/>
<path d="M270.175 244.316C271.547 244.316 272.66 243.205 272.66 241.834C272.66 240.463 271.547 239.352 270.175 239.352C268.802 239.352 267.69 240.463 267.69 241.834C267.69 243.205 268.802 244.316 270.175 244.316Z" stroke="#D2E8F9" stroke-width="0.828144" stroke-miterlimit="10"/>
<path d="M326.748 99.1703V104.573" stroke="#D2E8F9" stroke-width="0.828144" stroke-miterlimit="10" stroke-linecap="round" stroke-linejoin="round"/>
<path d="M329.379 101.945H323.97" stroke="#D2E8F9" stroke-width="0.828144" stroke-miterlimit="10" stroke-linecap="round" stroke-linejoin="round"/>
<path d="M425.278 29.0797V34.4825" stroke="#D2E8F9" stroke-width="0.828144" stroke-miterlimit="10" stroke-linecap="round" stroke-linejoin="round"/>
<path d="M427.909 31.854H422.5" stroke="#D2E8F9" stroke-width="0.828144" stroke-miterlimit="10" stroke-linecap="round" stroke-linejoin="round"/>
<path d="M577.751 177V182.549" stroke="#D2E8F9" stroke-width="0.828144" stroke-miterlimit="10" stroke-linecap="round" stroke-linejoin="round"/>
<path d="M580.382 179.775H574.973" stroke="#D2E8F9" stroke-width="0.828144" stroke-miterlimit="10" stroke-linecap="round" stroke-linejoin="round"/>
<path d="M376.013 333.828C376.013 333.828 365.78 338.209 365.78 340.399C365.78 341.713 379.814 339.815 380.691 339.085C382.007 337.771 380.107 334.12 380.107 334.12L376.013 333.828Z" fill="#26387A"/>
<path d="M375.283 327.695L375.867 333.974C375.867 333.974 376.16 334.996 377.622 335.142C379.084 335.288 379.961 333.974 379.961 333.974L379.522 326.089" fill="#FFB288"/>
<path d="M393.117 183.717C396.772 198.612 395.456 206.205 390.048 217.594C386.685 255.56 384.492 293.38 379.961 330.324L375.283 330.616C364.611 294.548 354.817 240.812 355.986 191.456" fill="#26387A"/>
<path d="M390.925 188.828C392.24 192.332 392.679 196.275 392.533 199.926C392.386 205.62 390.047 210.731 388.586 216.134C386.539 223.289 386.393 230.444 385.954 237.891C385.077 249.427 384.2 260.963 383.323 272.499C381.861 291.335 380.399 310.026 378.937 328.863C378.937 329.447 378.791 330.031 378.791 330.469" stroke="#0061A6" stroke-width="0.414072" stroke-miterlimit="10"/>
<path d="M416.8 335.288C416.8 335.288 406.567 339.669 406.567 341.859C406.567 343.174 420.601 341.275 421.478 340.545C422.793 339.231 420.893 335.58 420.893 335.58L416.8 335.288Z" fill="#26387A"/>
<path d="M416.069 329.156L416.653 335.435C416.653 335.435 416.946 336.457 418.408 336.603C419.869 336.749 420.747 335.435 420.747 335.435L420.308 327.549" fill="#FFB288"/>
<path d="M427.179 182.549C431.857 197.297 430.98 204.89 426.302 216.572C425.571 254.684 422.94 294.402 420.893 331.638H416.069C403.058 296.446 389.025 241.98 387.124 192.771" fill="#26387A"/>
<path d="M424.84 188.536C424.84 188.536 430.248 201.24 421.039 219.201C420.015 236.139 419.431 331.492 419.431 331.492" stroke="#0061A6" stroke-width="0.414072" stroke-miterlimit="10"/>
<path d="M411.391 192.625C412.268 194.085 413.73 195.107 415.338 195.691C416.946 196.275 418.554 196.567 420.308 196.859C422.355 197.151 424.401 197.297 426.448 197.151" stroke="#0061A6" stroke-width="0.414072" stroke-miterlimit="10"/>
<path d="M411.975 194.961C413.73 196.567 415.922 197.443 418.261 198.027C420.6 198.612 422.939 198.612 425.278 198.758" stroke="#0061A6" stroke-width="0.414072" stroke-miterlimit="10"/>
<path d="M371.335 111.582C355.109 139.765 337.566 165.465 327.187 196.275L324.117 194.669C324.848 166.049 334.204 124.286 346.484 98.2943" fill="#FFB288"/>
<path d="M363.441 82.0859C363.441 82.0859 358.471 83.5462 352.477 87.4888C346.922 91.1393 342.683 96.6882 339.905 102.675C336.982 108.662 335.52 115.233 334.497 121.804C334.497 121.804 341.367 125.162 349.115 126.185C356.863 127.207 365.196 126.185 365.196 126.185" fill="#D9F0FF"/>
<path d="M351.309 98.7324C349.555 129.251 350.871 160.646 351.748 190.434C351.748 190.434 362.419 193.209 388.294 193.209C414.169 193.209 430.98 185.324 430.98 185.324C426.01 154.805 422.063 117.277 409.784 92.1614C409.784 92.1614 395.896 77.2671 382.301 76.683C379.523 76.537 376.892 77.5592 374.26 78.7273C372.36 79.6035 363.443 81.7938 363.443 81.7938L351.309 98.7324Z" fill="#D9F0FF"/>
<path d="M351.162 101.507C350.431 107.348 350.431 125.454 350.431 125.454" stroke="#94C1F2" stroke-width="0.414072" stroke-miterlimit="10"/>
<path d="M376.891 200.072C420.162 195.253 438.289 250.157 448.23 271.331C471.473 321.562 559.477 316.013 599.532 316.013C652.013 316.013 675.11 333.682 650.551 342.881" stroke="#5E8CE9" stroke-width="4.14072" stroke-miterlimit="10" stroke-linecap="round" stroke-linejoin="round"/>
<path d="M391.802 202.554C391.802 224.75 374.99 238.184 360.518 238.184H336.836V166.779H360.518C374.99 166.779 391.802 180.213 391.802 202.554Z" fill="#FDAE2B"/>
<path d="M379.668 202.554C379.668 224.312 366.804 241.98 350.87 241.98H324.848V163.274H350.87C366.804 163.128 379.668 180.797 379.668 202.554Z" fill="#EF8417"/>
<path opacity="0.5" d="M385.516 181.089C379.815 188.828 374.406 196.567 368.997 204.453C369.728 204.307 370.459 203.869 371.044 203.431C371.044 204.015 370.166 205.037 370.897 205.475C371.774 205.913 372.652 204.891 373.529 205.183C374.406 205.037 375.137 204.015 375.722 203.431C375.429 204.015 375.429 204.453 375.429 204.745C381.13 202.554 386.393 197.152 390.779 192.771C389.609 188.244 387.709 184.302 385.516 181.089Z" fill="#FDAE2B"/>
<path d="M326.749 241.98C342.654 241.98 355.548 224.329 355.548 202.554C355.548 180.78 342.654 163.128 326.749 163.128C310.844 163.128 297.95 180.78 297.95 202.554C297.95 224.329 310.844 241.98 326.749 241.98Z" fill="#FFC840"/>
<path d="M329.088 216.426C329.088 219.639 326.895 222.267 324.117 222.267C321.34 222.267 319.147 219.639 319.147 216.426C319.147 213.214 321.34 210.585 324.117 210.585C326.895 210.585 329.088 213.214 329.088 216.426Z" fill="#EF8417"/>
<path d="M329.088 188.536C329.088 191.749 326.896 194.377 324.118 194.377C321.341 194.377 319.148 191.749 319.148 188.536C319.148 185.324 321.341 182.695 324.118 182.695C326.896 182.695 329.088 185.324 329.088 188.536Z" fill="#EF8417"/>
<path d="M417.676 121.22C417.676 121.22 419.431 139.765 411.244 155.243C404.081 168.531 390.047 185.616 378.499 194.961L375.721 194.231C379.668 179.045 392.24 151.885 392.971 141.809C393.702 131.733 393.556 119.906 393.702 114.211" fill="#FFB288"/>
<path d="M382.3 76.6831C382.3 76.6831 397.649 77.7053 406.566 85.2984C419.285 95.958 421.185 116.985 421.185 121.804C417.384 125.893 408.905 126.185 402.912 126.185C396.918 126.185 392.386 123.264 392.386 123.264L391.071 100.193" fill="#D9F0FF"/>
<path d="M376.891 192.187C375.137 192.333 373.529 193.209 371.92 194.377C370.605 195.399 368.997 197.151 369.143 198.027C369.289 198.904 371.482 197.297 371.774 197.589C372.067 197.881 367.973 204.014 368.704 204.452C369.435 204.89 372.944 199.342 372.944 199.342C372.944 199.342 369.581 205.183 370.897 205.329C371.92 205.475 374.99 199.926 374.99 199.926C374.99 199.926 372.505 204.89 373.382 205.036C374.259 205.183 376.598 200.218 376.598 200.218C376.598 200.218 374.698 204.452 375.429 204.598C375.721 204.598 377.622 202.554 378.499 199.926C379.23 197.443 380.107 195.253 379.522 193.209" fill="#FFB288"/>
<path d="M392.825 102.529V123.556" stroke="#94C1F2" stroke-width="0.414072" stroke-miterlimit="10"/>
<path d="M350.577 57.2622C350.431 58.1384 350.431 59.1605 350.431 60.0367C350.431 62.081 350.724 64.1253 351.893 65.7315C352.624 66.8997 353.794 67.6298 355.109 68.0679C355.986 68.3599 357.302 68.2139 357.594 67.3378C357.741 67.0457 357.74 66.6077 357.74 66.3156C357.74 62.9571 357.01 59.5986 355.84 56.3861" fill="#0A0769"/>
<path d="M373.675 59.1607C372.359 54.0499 368.266 46.8948 361.541 48.355C357.302 49.2312 353.501 52.1516 352.186 56.0942C350.724 60.9129 353.063 66.4618 355.986 70.4044C357.01 71.8646 358.325 73.1788 359.933 74.0549C363.88 76.0992 369.143 74.347 371.774 71.1345C374.406 67.776 374.698 63.2493 373.675 59.1607Z" fill="#FFB288"/>
<path d="M364.173 72.5945L366.366 80.6257L363.442 82.0859C363.442 82.0859 365.781 85.1524 370.166 84.4223C379.376 83.1081 382.3 76.6831 382.3 76.6831L377.183 76.099L371.482 66.3156" fill="#FFB288"/>
<path d="M378.207 53.6115C377.622 50.107 374.99 47.0405 372.067 45.2883C366.658 41.9298 358.91 41.7837 354.086 46.3104C351.308 48.9388 346.338 57.9922 352.332 59.8905C354.232 60.4746 356.132 59.3064 357.74 58.2843C359.349 57.2621 360.957 56.0939 362.711 55.0718C363.296 54.6337 363.88 54.3417 364.611 54.1956C365.781 54.1956 366.658 55.2178 367.096 56.2399C367.535 57.2621 367.535 58.5763 367.827 59.5985C367.974 60.3286 368.412 61.2047 368.997 61.6428C369.728 62.0808 370.751 61.9348 371.19 61.2047C371.482 60.6206 371.19 60.0365 371.19 59.4524C371.19 58.8683 371.482 58.1382 372.067 58.2843C372.213 58.2843 372.505 58.4303 372.651 58.5763C374.113 59.7445 373.675 61.9348 374.113 63.6871C374.113 63.9791 373.675 67.4837 373.821 67.6297C378.207 66.4615 378.645 56.0939 378.207 53.6115Z" fill="#0A0769"/>
<path d="M371.336 58.7224C371.19 58.1383 371.921 57.4082 372.505 57.4082C373.09 57.4082 373.821 57.7002 374.26 58.1383C375.137 58.8684 375.721 59.8906 375.721 61.0588C375.721 61.9349 375.429 62.811 374.844 63.5411C374.552 63.9792 374.113 64.5633 373.529 64.7093C372.798 65.0014 371.921 64.5633 371.482 64.1252" fill="#FFB288"/>
<path d="M208.63 333.536C208.63 333.536 218.425 335.142 218.717 337.332C218.863 338.501 204.83 340.107 203.952 339.377C202.491 338.209 204.245 333.828 204.245 333.828L208.63 333.536Z" fill="#26387A"/>
<path d="M207.753 327.549L208.63 333.828C208.63 333.828 208.484 334.85 207.022 335.142C205.56 335.434 204.537 334.266 204.537 334.266L203.368 326.527" fill="#FFB288"/>
<path d="M170.914 185.616C169.16 200.948 169.014 208.249 175.885 218.763C179.101 233.511 184.071 248.697 187.872 263.883C186.264 281.99 197.666 310.903 203.806 331.492L208.192 330.762C214.185 293.672 216.378 236.723 210.969 186.93" fill="#26387A"/>
<path d="M173.838 206.497C173.838 206.497 190.796 260.233 190.796 263.153C190.796 266.074 191.234 276.149 191.965 282.574C193.281 294.548 204.099 329.593 204.099 329.593" stroke="#0061A6" stroke-width="0.414072" stroke-miterlimit="10"/>
<path d="M203.66 332.368L202.929 329.739L208.63 329.447L208.776 331.93L203.66 332.368Z" fill="#0061A6"/>
<path d="M131.883 333.828C131.883 333.828 139.631 339.377 138.9 341.421C138.461 342.589 125.889 337.917 125.451 336.894C124.72 335.288 128.082 332.368 128.082 332.368L131.883 333.828Z" fill="#26387A"/>
<path d="M133.784 328.425L131.883 334.12C131.883 334.12 131.298 334.996 129.983 334.558C128.667 334.266 128.228 332.806 128.228 332.806L130.567 325.651" fill="#FFB288"/>
<path d="M137.877 182.549C133.199 197.297 134.076 204.89 138.754 216.572C139.046 230.444 139.193 244.608 139.339 258.626C129.398 283.45 127.79 305.646 129.106 329.301L133.93 331.053C133.93 331.053 162.436 281.406 167.699 261.839C173.692 239.352 177.055 215.258 178.078 192.771" fill="#26387A"/>
<path d="M139.046 185.616C139.046 185.616 133.929 200.802 140.654 215.404C140.654 219.493 142.993 253.37 142.116 258.627C141.677 261.109 136.999 273.083 133.929 284.765C130.421 297.615 129.69 328.133 129.69 328.133" stroke="#0061A6" stroke-width="0.414072" stroke-miterlimit="10"/>
<path d="M128.082 329.155L128.959 326.089L135.099 328.863L133.783 331.637L128.082 329.155Z" fill="#0061A6"/>
<path d="M217.548 69.0899L213.747 65.8774C213.747 65.8774 213.747 60.1825 213.747 59.1604C213.747 58.1382 212.285 51.8593 210.97 51.8593C209.654 51.8593 209.362 50.253 208.777 50.9831C208.192 51.5672 209.362 58.7223 208.777 59.3064C208.192 59.8905 207.607 55.9479 207.023 56.386C206.584 56.824 206.438 59.7445 206.438 61.2047C206.438 62.6649 207.607 65.4393 208.777 66.6075C209.946 67.7757 215.063 73.3245 215.063 73.3245L217.548 69.0899Z" fill="#EF9467"/>
<path d="M215.647 66.8998L212.431 70.5503C212.431 70.5503 225.149 87.3429 229.096 92.8917C225.442 91.5775 220.179 88.365 217.109 86.4667C211.116 82.5241 205.122 80.4798 201.029 80.4798C192.258 80.4798 196.789 109.392 207.022 113.627C226.319 116.547 247.954 114.649 251.317 107.932C256.287 97.8565 227.927 74.2009 215.647 66.8998Z" fill="#D9F0FF"/>
<path d="M229.096 92.8916C229.096 92.8916 231.582 99.6086 235.821 101.799" stroke="#94C1F2" stroke-width="0.414072" stroke-miterlimit="10"/>
<path d="M156.734 88.0728C133.637 113.919 134.075 158.309 134.075 188.536C134.075 188.536 151.033 200.072 176.762 200.072C202.637 200.072 213.308 193.647 213.308 193.647C214.039 163.128 208.63 149.84 213.747 99.3165C213.747 99.3165 205.56 80.4797 201.175 80.4797C196.789 80.4797 179.539 78.7274 179.539 78.7274L156.734 88.0728Z" fill="#D9F0FF"/>
<path d="M212.431 114.357C212.431 114.357 213.016 105.449 215.062 103.405" stroke="#94C1F2" stroke-width="0.414072" stroke-miterlimit="10"/>
<path d="M187.141 59.4523C188.018 54.1955 191.673 46.7484 198.543 47.6245C202.783 48.2086 206.145 51.129 208.484 54.6336C210.531 57.554 209.8 60.4744 206.876 67.9216C205.999 69.5278 203.952 72.1562 202.344 73.1784C198.689 75.5147 193.281 74.3465 190.357 71.2801C187.433 68.2136 186.41 63.5409 187.141 59.4523Z" fill="#FFB288"/>
<path d="M188.018 58.7222C189.041 58.5761 188.018 57.9921 188.457 58.8682C188.749 59.4523 188.749 59.5983 189.334 59.7443C189.918 59.8903 189.918 60.4744 190.357 60.7665C191.088 61.3506 191.673 60.6205 191.965 60.0364C192.55 58.8682 192.55 57.554 192.404 56.3858C192.257 55.3637 191.965 53.9034 192.988 53.1733C193.719 52.5892 195.473 53.4654 196.204 53.6114C197.374 53.9034 198.69 54.3415 199.859 54.7796C202.783 55.6557 205.853 56.5318 209.069 56.0938C211.7 55.8017 214.624 54.3415 215.793 51.8591C217.401 48.7927 214.185 44.9961 211.115 44.9961C210.238 44.9961 209.507 45.2881 208.63 45.4341C208.338 45.4341 208.045 45.5802 207.753 45.4341C207.022 45.2881 206.73 44.412 206.437 43.8279C205.268 42.0756 203.221 41.4916 201.175 41.6376C198.836 41.9296 196.789 42.9518 194.596 43.6819C193.427 43.9739 192.404 43.6819 191.234 43.6819C190.065 43.6819 188.749 44.558 188.164 45.5802C187.141 44.558 185.094 47.0404 184.51 47.6245C182.171 50.3989 181.44 54.4875 181.44 58.1381C181.44 61.2045 181.878 65.8772 185.387 67.0454C186.849 67.6295 187.726 67.9216 187.872 66.4613C187.287 65.1471 187.141 62.3727 186.995 61.2045C186.849 60.0364 187.141 58.7222 188.31 58.2841" fill="#0A0769"/>
<path d="M199.128 71.8643L198.397 79.7495L201.029 80.4796C201.029 80.4796 199.713 83.9841 195.181 84.5682C185.971 85.7364 179.539 78.7273 179.539 78.7273L182.609 78.1432L187.287 63.541" fill="#FFB288"/>
<path d="M189.48 58.7221C189.48 58.138 188.895 57.554 188.164 57.554C187.58 57.554 186.849 57.992 186.41 58.4301C183.779 61.0585 187.141 67.1914 189.626 63.9789" fill="#FFB288"/>
<path d="M206.876 67.7756C206.438 68.7977 204.83 69.0898 203.952 69.2358C199.567 69.6739 196.058 66.8994 191.965 66.4614C191.088 66.3153 190.211 66.3154 189.626 66.8994C189.041 67.4835 189.041 68.3597 189.041 69.0898C189.041 70.1119 189.041 70.9881 189.041 72.0102C189.188 72.8863 189.334 73.6165 189.772 74.3466C191.673 77.413 197.813 77.9971 201.029 77.8511C202.344 77.7051 203.66 77.5591 204.683 76.8289C206.145 75.8068 206.438 73.9085 206.876 72.3023C207.315 69.9659 206.876 67.7756 206.876 67.7756Z" fill="#0A0769"/>
<path d="M203.806 71.1339C203.66 70.9879 203.514 70.9879 203.368 70.9879C201.321 70.9879 200.298 70.5498 198.69 70.4038C198.397 70.4038 198.105 70.4038 197.959 70.4038C197.374 70.5498 197.082 71.1339 196.936 71.718C196.789 72.3021 197.082 72.7402 197.666 73.0322C198.544 73.4703 199.713 73.6163 200.736 73.7623C201.614 73.7623 202.783 73.9083 203.514 73.3243C203.806 72.7402 204.391 71.572 203.806 71.1339Z" fill="#FFB288"/>
<path d="M184.802 185.177C134.514 182.549 105.277 208.541 84.3724 255.706C57.328 317.035 19.612 321.854 2.65442 321.562" stroke="#5E8CE9" stroke-width="4.14072" stroke-miterlimit="10" stroke-linecap="round" stroke-linejoin="round"/>
<path d="M165.505 189.266C167.406 211.462 185.24 223.435 199.567 222.267L223.103 220.369L217.109 149.256L193.573 151.154C179.247 152.323 163.605 167.071 165.505 189.266Z" fill="#FDAE2B"/>
<path d="M177.639 188.244C179.393 209.855 193.72 226.356 209.654 225.041L235.675 222.851L229.096 144.437L203.075 146.628C187.141 147.942 175.739 166.633 177.639 188.244Z" fill="#EF8417"/>
<path d="M233.685 223.144C249.535 221.824 260.914 203.163 259.102 181.465C257.29 159.767 242.973 143.248 227.123 144.568C211.274 145.889 199.894 164.55 201.707 186.248C203.519 207.946 217.836 224.465 233.685 223.144Z" fill="#FFC840"/>
<path d="M229.243 197.881C229.536 201.094 231.874 203.576 234.652 203.284C237.43 202.992 239.33 200.218 239.038 197.005C238.745 193.793 236.406 191.31 233.629 191.602C230.851 191.894 228.951 194.669 229.243 197.881Z" fill="#FDAE2B"/>
<path d="M226.904 170.137C227.196 173.35 229.535 175.832 232.313 175.54C235.09 175.248 236.991 172.474 236.698 169.261C236.406 166.049 234.067 163.566 231.289 163.858C228.512 164.15 226.611 166.925 226.904 170.137Z" fill="#FDAE2B"/>
<path d="M232.605 173.788C235.529 173.495 269.298 170.721 269.298 170.721C271.491 170.575 273.245 168.531 272.952 166.34C272.806 164.15 270.76 162.398 268.567 162.544C268.567 162.544 234.652 165.318 231.874 165.61C229.097 165.902 229.681 174.08 232.605 173.788Z" fill="#E2E8ED"/>
<path d="M234.944 201.532C237.867 201.24 271.636 198.465 271.636 198.465C273.829 198.319 275.583 196.275 275.291 194.085C275.145 191.894 273.098 190.142 270.905 190.288C270.905 190.288 236.99 193.062 234.213 193.355C231.435 193.647 232.02 201.824 234.944 201.532Z" fill="#E2E8ED"/>
<path d="M144.455 121.22C144.455 121.22 142.701 139.765 150.887 155.243C158.05 168.531 172.084 185.616 183.633 194.961L186.411 194.231C182.464 179.045 169.892 151.885 169.161 141.809C168.43 131.733 168.576 119.906 168.43 114.211" fill="#FFB288"/>
<path d="M179.541 78.7274C179.541 78.7274 163.46 79.6036 154.104 86.6126C138.024 98.7325 141.24 131.295 145.918 147.212C150.596 163.128 173.108 186.93 180.271 192.041C181.441 192.041 184.949 191.749 184.803 188.974C180.856 176.562 169.308 143.999 169.308 143.999L171.062 100.047" fill="#D9F0FF"/>
<path d="M185.241 192.187C186.996 192.333 188.604 193.209 190.212 194.377C191.527 195.399 193.135 197.151 192.989 198.027C192.843 198.904 190.65 197.297 190.358 197.589C190.065 197.881 194.159 204.014 193.428 204.452C192.697 204.89 189.188 199.342 189.188 199.342C189.188 199.342 192.551 205.183 191.235 205.329C190.212 205.475 187.142 199.926 187.142 199.926C187.142 199.926 189.627 204.89 188.75 205.036C187.873 205.183 185.534 200.218 185.534 200.218C185.534 200.218 187.434 204.452 186.703 204.598C186.411 204.598 184.51 202.554 183.633 199.926C182.902 197.443 182.025 195.253 182.61 193.209" fill="#FFB288"/>
<path d="M173.839 157.141C171.207 149.694 169.307 144.145 169.307 144.145L172.669 107.202" stroke="#94C1F2" stroke-width="0.414072" stroke-miterlimit="10"/>
<path d="M142.116 116.109C141.97 126.185 143.286 138.45 145.771 147.212C147.964 154.805 154.396 164.296 161.267 172.766" stroke="#94C1F2" stroke-width="0.414072" stroke-miterlimit="10"/>
<path d="M487.407 61.7885L490.038 60.0363C490.038 60.0363 491.208 54.3414 491.939 53.3192C492.67 52.2971 493.986 49.9607 495.447 48.9386C496.032 48.5005 498.956 46.8943 499.687 47.6244C499.979 47.9164 498.81 51.2749 498.225 51.859C497.64 52.4431 496.032 54.9255 496.325 55.6556C496.617 56.3857 497.933 54.7795 498.225 54.3414C498.517 54.0493 498.956 53.6113 499.102 54.0493C499.394 54.7795 497.933 58.7221 496.763 59.7442C495.594 60.9124 493.839 61.9345 492.524 61.9345L488.43 65.4391" fill="#FFB288"/>
<path d="M518.545 43.2437C522.784 45.7261 525.562 50.5448 526.585 55.3635C526.731 56.2397 526.877 57.1158 527.462 57.8459C527.901 58.43 528.632 58.576 529.216 58.8681C532.725 60.4743 535.502 63.6868 536.818 67.4834C537.403 69.0896 536.964 71.2799 537.549 72.5941C538.28 74.2004 541.057 74.6385 542.665 75.0765C547.197 76.5367 550.559 81.0634 550.559 85.8822C550.559 90.5549 547.343 95.2276 542.958 96.8338C544.127 98.5861 544.274 100.776 543.835 102.821C543.25 104.865 542.081 106.617 540.619 108.078C534.918 114.502 526.146 117.861 517.668 117.569C515.182 117.423 512.697 116.985 510.505 116.109C507.873 115.087 505.68 113.334 503.488 111.582C500.856 109.538 498.225 107.201 496.763 104.135C495.301 101.068 495.447 97.1259 497.786 94.6435C495.009 95.2276 492.085 93.7673 490.477 91.285C488.869 88.9486 488.577 85.8822 489.308 83.1077C489.892 80.3333 491.354 77.8509 493.108 75.5146C494.278 73.9083 495.74 72.3021 495.886 70.2578C496.325 66.8993 494.424 63.9788 493.986 60.7663C493.255 55.6556 493.401 51.2749 497.786 48.5005C499.248 44.8499 500.856 42.0755 504.949 41.0534C509.627 39.8852 514.305 40.7613 518.545 43.2437Z" fill="#0A0769"/>
<path d="M508.165 81.9396C493.547 78.1431 476.882 84.13 473.227 84.13C478.344 79.0192 487.699 67.7755 490.915 63.8329C490.915 61.2045 489.307 60.3284 489.307 60.3284C489.307 60.3284 449.253 80.9175 453.346 94.4976C457.585 108.516 496.763 101.653 499.833 105.741" fill="#B6E9FE"/>
<path d="M510.943 213.068C510.943 214.236 505.68 239.936 505.242 242.71C504.072 250.741 508.312 258.772 508.019 271.184C507.581 286.225 501.149 326.965 500.271 328.717C499.394 330.469 495.594 328.863 495.594 328.863C495.594 328.863 484.337 274.397 483.606 252.055C483.022 233.657 485.799 193.939 485.799 193.939" fill="#FFB288"/>
<path d="M500.71 329.301C500.71 329.301 501.295 330.615 501.295 331.346C501.148 333.098 501.148 334.12 501.148 334.12H500.418L500.125 332.806C500.125 332.806 498.225 333.098 496.178 334.412C495.155 334.996 490.331 334.996 489.6 334.558C488.723 334.12 489.015 333.39 489.307 332.952C489.6 332.66 494.863 330.323 494.863 330.323" fill="#26387A"/>
<path d="M495.594 328.863C495.155 329.885 491.062 332.075 491.354 332.514C491.793 332.806 494.132 332.806 496.763 331.929C499.248 331.053 500.564 330.177 500.71 329.593L500.272 327.841" fill="#FFB288"/>
<path d="M547.197 214.09C547.197 215.258 542.811 241.104 542.519 243.878C541.642 251.91 546.174 259.795 546.028 272.207C546.028 287.393 540.765 328.133 540.034 329.885C539.303 331.638 535.356 330.177 535.356 330.177C535.356 330.177 522.345 276.149 521.03 253.808C520.006 235.409 521.468 195.691 521.468 195.691" fill="#FFB288"/>
<path d="M540.472 330.761C540.472 330.761 541.203 332.076 541.203 332.806C541.203 334.558 541.203 335.726 541.203 335.726H540.472L540.18 334.412C540.18 334.412 538.28 334.85 536.233 336.164C535.356 336.894 530.386 336.894 529.655 336.602C528.778 336.164 529.07 335.434 529.362 334.996C529.655 334.704 534.771 332.222 534.771 332.222" fill="#26387A"/>
<path d="M535.356 330.323C534.918 331.346 530.825 333.682 531.263 333.974C531.702 334.266 534.041 334.266 536.672 333.244C539.011 332.368 540.473 331.346 540.473 330.762L539.888 329.009" fill="#FFB288"/>
<path d="M534.04 148.234C534.04 148.234 545.589 155.827 549.975 173.933C555.968 198.465 547.197 246.506 547.197 246.506C547.197 246.506 529.07 251.763 509.335 251.617C489.6 251.471 477.905 244.754 477.905 243.586C477.905 242.418 474.981 206.058 478.928 181.381C483.46 153.636 494.863 146.189 494.863 146.189" fill="#2858AD"/>
<path d="M518.398 81.5017C520.153 80.7716 524.831 82.5238 533.602 85.7363C537.403 89.8249 539.157 99.0243 539.888 107.056C537.695 126.623 535.064 137.282 536.379 143.853C536.672 145.459 538.133 146.628 537.841 148.818C537.403 153.345 529.947 154.075 515.913 155.535C501.879 157.141 489.307 150.716 490.038 148.818C490.769 146.774 493.254 145.021 493.547 143.707C493.985 142.393 495.009 125.6 493.547 123.702C492.085 121.658 488.138 115.963 488.138 110.414C488.138 102.529 492.523 99.0243 495.301 94.7897C499.979 87.6346 503.634 83.1079 508.165 81.9397C515.475 80.1875 518.398 81.5017 518.398 81.5017Z" fill="#B6E9FE"/>
<path d="M494.716 91.431C494.716 91.431 495.155 94.7895 493.547 97.564C492.962 98.4401 489.892 101.653 489.161 103.697" stroke="#6CB1EF" stroke-width="0.414072" stroke-miterlimit="10"/>
<path d="M515.036 72.0099C518.837 68.2134 519.422 61.0583 517.668 56.0935C515.767 50.5447 507.873 46.4561 502.464 49.9606C491.939 56.6776 502.61 84.1298 515.036 72.0099Z" fill="#FFB288"/>
<path d="M507.727 71.28L507.873 82.9618C507.873 82.9618 507.435 85.5902 511.966 85.7362C518.252 86.0282 518.252 81.5016 518.252 81.5016L514.598 69.3817" fill="#FFB288"/>
<path d="M512.405 44.7039C511.089 43.8278 509.774 43.8278 508.458 44.5579C507.581 44.996 506.996 45.8721 506.265 46.1642C505.68 46.4562 504.95 46.4562 504.219 46.6022C501.149 47.4784 498.225 49.8147 497.055 52.7352C495.74 55.6556 496.178 60.4743 498.663 62.5186C498.517 60.3283 499.248 56.9698 500.418 55.0715C501.002 54.0494 502.026 53.0272 503.195 53.1732C504.511 53.3192 505.242 54.7795 506.265 55.6556C507.727 57.1158 509.774 57.4079 511.674 57.6999C513.867 57.992 515.475 58.43 516.644 60.4743C517.083 61.3505 517.375 62.3726 517.668 63.3948C517.96 64.563 518.252 65.7311 518.399 67.0453C518.399 67.7754 518.399 68.6516 518.691 69.3817C519.13 70.8419 520.591 71.718 522.053 72.1561C523.223 72.5942 524.977 72.8862 525.708 71.572C526.293 70.5499 526.731 69.0896 527.024 67.9215C527.755 63.9789 526.439 59.8902 524.246 56.5317C521.907 52.8812 518.545 50.3988 515.621 47.1863C514.305 46.3102 513.428 45.4341 512.405 44.7039Z" fill="#0A0769"/>
<path d="M515.475 62.8106C515.767 61.9345 516.352 61.0584 517.229 60.9123C520.153 60.4743 519.714 64.8549 518.545 66.4612C517.814 67.3373 516.06 68.5055 515.329 66.0231" fill="#FFB288"/>
<path d="M547.197 154.22L545.735 157.287C545.735 157.287 540.473 158.601 539.888 159.477C539.011 160.937 537.695 162.982 537.695 164.15C537.695 165.318 537.841 170.429 539.303 170.429C540.18 170.429 542.373 166.34 542.811 165.756C543.835 164.442 548.074 163.42 548.074 159.769L550.706 154.366" fill="#FFB288"/>
<path d="M518.398 81.3553C518.398 81.3553 530.824 78.1428 540.472 84.2758C547.928 88.9485 567.37 112.604 567.37 126.184C567.37 135.237 549.243 157.871 549.243 157.871L546.173 155.681C546.173 155.681 547.928 137.866 553.19 128.228C549.243 124.286 534.186 112.312 530.385 108.515" fill="#B6E9FE"/>
<path d="M528.485 107.201C531.263 109.538 538.28 115.379 538.28 115.379" stroke="#6CB1EF" stroke-width="0.414072" stroke-miterlimit="10"/>
<path d="M163.02 60.4744L148.109 48.3546C148.109 48.3546 154.834 23.5308 145.916 14.7695C141.238 10.0968 135.245 7.03032 128.959 4.69396C115.071 -0.416816 98.6982 -1.58499 86.4186 6.44623C77.3551 12.4331 71.8 22.8007 69.3148 33.3143C67.1221 42.6597 67.2682 53.1733 73.1157 60.7665C75.747 64.125 79.2555 66.7534 83.0563 68.7977C94.8974 74.9306 126.181 77.267 139.776 68.2136C143.577 65.7312 143.139 62.2267 144.747 56.9699L163.02 60.4744Z" fill="#0A0769"/>
<path d="M99.1001 39.7996C99.1001 41.4178 98.6944 42.6757 97.883 43.5732C97.0762 44.4707 95.9316 44.9194 94.4494 44.9194C92.9491 44.9194 91.7955 44.4752 90.9886 43.5868C90.1863 42.6938 89.7852 41.4269 89.7852 39.786C89.7852 38.1452 90.1886 36.885 90.9954 36.0057C91.8068 35.1263 92.9627 34.6866 94.463 34.6866C95.9407 34.6866 97.083 35.1331 97.8898 36.0261C98.6966 36.919 99.1001 38.1769 99.1001 39.7996ZM91.5122 39.7996C91.5122 41.0235 91.7592 41.9527 92.2533 42.5873C92.7473 43.2174 93.4794 43.5324 94.4494 43.5324C95.4149 43.5324 96.1424 43.2196 96.632 42.5941C97.126 41.9686 97.3731 41.0371 97.3731 39.7996C97.3731 38.5803 97.1283 37.6556 96.6388 37.0256C96.1537 36.3955 95.4285 36.0805 94.463 36.0805C93.4885 36.0805 92.7519 36.3955 92.2533 37.0256C91.7592 37.6556 91.5122 38.5803 91.5122 39.7996ZM107.735 41.0099C107.735 42.2383 107.42 43.197 106.79 43.886C106.16 44.5749 105.283 44.9194 104.159 44.9194C103.456 44.9194 102.835 44.7608 102.296 44.4435C101.756 44.1262 101.342 43.6706 101.051 43.0768C100.761 42.4831 100.616 41.7941 100.616 41.0099C100.616 39.7906 100.929 38.8387 101.555 38.1542C102.18 37.4698 103.062 37.1276 104.199 37.1276C105.287 37.1276 106.149 37.4788 106.783 38.1814C107.418 38.8795 107.735 39.8223 107.735 41.0099ZM102.262 41.0099C102.262 42.746 102.903 43.614 104.186 43.614C105.455 43.614 106.09 42.746 106.09 41.0099C106.09 39.292 105.451 38.433 104.172 38.433C103.501 38.433 103.014 38.6551 102.71 39.0993C102.411 39.5435 102.262 40.1804 102.262 41.0099ZM113.392 44.9194C112.44 44.9194 111.701 44.5772 111.175 43.8928H111.08C111.144 44.5273 111.175 44.9126 111.175 45.0486V48.1287H109.578V37.2635H110.869C110.906 37.4041 110.981 37.7395 111.094 38.2698H111.175C111.674 37.5083 112.422 37.1276 113.419 37.1276C114.357 37.1276 115.087 37.4675 115.609 38.1474C116.134 38.8274 116.397 39.7815 116.397 41.0099C116.397 42.2383 116.13 43.197 115.595 43.886C115.065 44.5749 114.33 44.9194 113.392 44.9194ZM113.004 38.433C112.37 38.433 111.905 38.6188 111.611 38.9905C111.32 39.3622 111.175 39.956 111.175 40.7719V41.0099C111.175 41.9255 111.32 42.5896 111.611 43.0021C111.901 43.41 112.374 43.614 113.032 43.614C113.585 43.614 114.011 43.3873 114.31 42.9341C114.609 42.4808 114.759 41.8349 114.759 40.9963C114.759 40.1532 114.609 39.5163 114.31 39.0857C114.015 38.6506 113.58 38.433 113.004 38.433ZM123.305 42.6417C123.305 43.376 123.038 43.9403 122.503 44.3347C121.968 44.7245 121.202 44.9194 120.205 44.9194C119.203 44.9194 118.398 44.7676 117.791 44.4639V43.0836C118.675 43.4916 119.498 43.6956 120.259 43.6956C121.243 43.6956 121.735 43.3987 121.735 42.8049C121.735 42.6145 121.68 42.4559 121.571 42.3289C121.463 42.202 121.284 42.0706 121.034 41.9346C120.785 41.7986 120.438 41.6445 119.994 41.4722C119.128 41.1368 118.541 40.8014 118.233 40.466C117.929 40.1305 117.777 39.6954 117.777 39.1605C117.777 38.5169 118.036 38.0182 118.553 37.6647C119.074 37.3066 119.781 37.1276 120.674 37.1276C121.558 37.1276 122.394 37.3066 123.183 37.6647L122.666 38.8681C121.855 38.5327 121.173 38.365 120.62 38.365C119.776 38.365 119.355 38.6052 119.355 39.0857C119.355 39.3214 119.464 39.5209 119.681 39.6841C119.903 39.8472 120.384 40.0716 121.123 40.3572C121.744 40.5974 122.195 40.8172 122.476 41.0167C122.757 41.2161 122.965 41.4473 123.101 41.7102C123.237 41.9686 123.305 42.2791 123.305 42.6417ZM126.419 41.7646H125.236L124.883 34.843H126.766L126.419 41.7646ZM124.801 43.9335C124.801 43.5981 124.889 43.3443 125.066 43.172C125.243 42.9953 125.495 42.9069 125.821 42.9069C126.143 42.9069 126.39 42.9975 126.562 43.1788C126.734 43.3601 126.82 43.6117 126.82 43.9335C126.82 44.2554 126.732 44.5115 126.555 44.7019C126.383 44.8877 126.138 44.9806 125.821 44.9806C125.499 44.9806 125.248 44.89 125.066 44.7087C124.889 44.5273 124.801 44.269 124.801 43.9335Z" fill="#94C1F2"/>
</svg>
